<?xml version="1.0" encoding="utf-8"?>
<!-- Generator: Adobe Illustrator 16.0.0, SVG Export Plug-In . SVG Version: 6.00 Build 0)  -->
<!DOCTYPE svg PUBLIC "-//W3C//DTD SVG 1.1//EN" "http://www.w3.org/Graphics/SVG/1.1/DTD/svg11.dtd">
<svg version="1.1" id="Layer_1" xmlns="http://www.w3.org/2000/svg" xmlns:xlink="http://www.w3.org/1999/xlink" x="0px" y="0px"
	 width="394px" height="159.333px" viewBox="0 0 394 159.333" enable-background="new 0 0 394 159.333" xml:space="preserve">
<image overflow="visible" width="494" height="748" xlink:href="DF9F55C7.jpg"  transform="matrix(1 0 0 1 -653.0586 -665.165)">
</image>
<image overflow="visible" width="454" height="351" xlink:href="DF9F55C5.jpg"  transform="matrix(1 0 0 1 -1043.5981 -456.0142)">
</image>
<path fill="#E100F9" d="M-1032.752-376.686c0,14.394-11.852,26.063-26.473,26.063h-27.68c-14.621,0-26.473-11.668-26.473-26.063l0,0
	c0-14.394,11.852-26.063,26.473-26.063h27.68C-1044.604-402.748-1032.752-391.08-1032.752-376.686L-1032.752-376.686z"/>
<rect x="-1113.002" y="-380.623" fill="#E100F9" width="80.25" height="82.125"/>
<path fill="#E100F9" d="M-1032.627-301.623c0,6.075-4.925,11-11,11h-58.5c-6.075,0-11-4.925-11-11l0,0c0-6.075,4.925-11,11-11h58.5
	C-1037.552-312.623-1032.627-307.698-1032.627-301.623L-1032.627-301.623z"/>
<circle fill="#222933" cx="-365.335" cy="-326.998" r="88.333"/>
<g>
	<g>
		<rect x="39.023" y="12.314" fill="#303030" width="42.854" height="7.793"/>
		<path fill="#383838" d="M100.18,45.334c-1.928-12.525-12.91-22.125-26.172-22.125h-27.68c-14.621,0-26.473,11.67-26.473,26.063
			c0,1.486,0.133,2.939,0.375,4.355l-0.166,67.041c-0.074,0.516,0.041,3.131,0.041,3.666s0.051,1.057,0.125,1.572l0.156,0.959
			l0.176,0.594c1.348,4.553,5.555,7.875,10.543,7.875h58.5c4.988,0,9.195-3.322,10.543-7.875l0.191-0.781l0.063-0.703
			c0.074-0.516,0.094-1.199,0.094-1.734s0.059-0.963-0.016-1.479"/>
		<rect x="19.867" y="50.127" fill="#D5494A" width="80.438" height="59"/>
		<rect x="40.543" y="20.023" fill="#292929" width="39.813" height="3.938"/>
		<g>
			<g>
				<path fill="#303030" d="M87.564,92.086c0,1.1-0.9,2-2,2h-63.5c-1.1,0-2-0.9-2-2v-27c0-1.1,0.9-2,2-2h63.5c1.1,0,2,0.9,2,2
					V92.086z"/>
			</g>
			<rect x="20.064" y="63.086" fill="#303030" width="46.25" height="31"/>
		</g>
		<path opacity="0.2" fill="#FFFFFF" d="M43.48,119.775c0,4.453-3.881,8.061-8.666,8.061l0,0c-4.787,0-8.668-3.607-8.668-8.061
			V44.145c0-4.451,3.881-8.059,8.668-8.059l0,0c4.785,0,8.666,3.607,8.666,8.059V119.775z"/>
		<text transform="matrix(1 0 0 1 22.9795 90.6016)" fill="#FFFFFF" font-family="'ArticulateExtrabold'" font-size="18.7922">WHEY</text>
		<rect x="39.814" y="12.586" opacity="0.2" fill="#FFFFFF" width="8.834" height="7"/>
		<rect x="65.752" y="12.982" fill="#292929" width="15.854" height="6.313"/>
		<path opacity="0.2" fill="#292929" d="M98.814,112.551c0,8.441-5.672,15.285-12.668,15.285l0,0
			c-6.994,0-12.666-6.844-12.666-15.285V52.119c0-8.441,5.672-15.283,12.666-15.283l0,0c6.996,0,12.668,6.842,12.668,15.283V112.551
			z"/>
	</g>
	<g>
		<g>
			<path fill="#383838" d="M282.178,131.334c0,2.2-1.8,4-4,4h-56.5c-2.2,0-4-1.8-4-4V79.086c0-2.2,1.8-4,4-4h56.5c2.2,0,4,1.8,4,4
				V131.334z"/>
		</g>
		<rect x="221.428" y="71.711" fill="#292929" width="57" height="3.438"/>
		<rect x="217.678" y="61.398" fill="#303030" width="64.5" height="10.375"/>
		<rect x="217.678" y="86.961" fill="#73BD70" width="64.5" height="36.875"/>
		<g>
			<g>
				<path fill="#303030" d="M276.67,114.063c0,1.1-0.9,2-2,2h-55c-1.1,0-2-0.9-2-2v-19.51c0-1.1,0.9-2,2-2h55c1.1,0,2,0.9,2,2
					V114.063z"/>
			</g>
			<rect x="217.67" y="92.553" fill="#303030" width="40.426" height="23.51"/>
		</g>
		<text transform="matrix(1 0 0 1 218.334 111.9023)" fill="#FFFFFF" font-family="'ArticulateExtrabold'" font-size="16.3025">BCAA</text>
		<g opacity="0.1">
			<path fill="#FFFFFF" d="M230.67,126.711c0,2.2-1.8,4-4,4h-2.375c-2.2,0-4-1.8-4-4v-43.25c0-2.2,1.8-4,4-4h2.375c2.2,0,4,1.8,4,4
				V126.711z"/>
		</g>
		<g opacity="0.3">
			<path fill="#303030" d="M280.67,127.627c0,1.65-1.35,3-3,3h-10.625c-1.65,0-3-1.35-3-3V81.959c0-1.65,1.35-3,3-3h10.625
				c1.65,0,3,1.35,3,3V127.627z"/>
		</g>
		<rect x="220.129" y="62.232" opacity="0.2" fill="#FFFFFF" width="10.021" height="8.688"/>
		<rect x="265.129" y="62.314" fill="#292929" width="15.854" height="8.688"/>
	</g>
	<g>
		<g>
			<path fill="#383838" d="M374.145,131.334c0,2.2-1.8,4-4,4h-43.961c-2.2,0-4-1.8-4-4V90.799c0-2.2,1.8-4,4-4h43.961
				c2.2,0,4,1.8,4,4V131.334z"/>
		</g>
		<rect x="325.205" y="84.08" fill="#292929" width="45.918" height="2.77"/>
		<rect x="322.184" y="75.771" fill="#303030" width="51.961" height="8.359"/>
		<rect x="322.184" y="96.365" fill="#4E9BDF" width="51.961" height="29.705"/>
		<g>
			<g>
				<path fill="#303030" d="M369.707,117.811c0,1.1-0.9,2-2,2h-43.529c-1.1,0-2-0.9-2-2v-14.939c0-1.1,0.9-2,2-2h43.529
					c1.1,0,2,0.9,2,2V117.811z"/>
			</g>
			<rect x="322.178" y="100.871" fill="#303030" width="32.566" height="18.939"/>
		</g>
		<text transform="matrix(1 0 0 1 322.7129 116.459)" fill="#FFFFFF" font-family="'ArticulateExtrabold'" font-size="8">CREATINA</text>
		<g opacity="0.1">
			<path fill="#FFFFFF" d="M332.65,127.609c0,2.2-1.8,4-4,4h-0.359c-2.2,0-4-1.8-4-4V94.322c0-2.2,1.8-4,4-4h0.359c2.2,0,4,1.8,4,4
				V127.609z"/>
		</g>
		<g opacity="0.3">
			<path fill="#303030" d="M372.93,128.541c0,1.65-1.35,3-3,3h-7.393c-1.65,0-3-1.35-3-3V92.92c0-1.65,1.35-3,3-3h7.393
				c1.65,0,3,1.35,3,3V128.541z"/>
		</g>
		<rect x="324.158" y="76.443" opacity="0.2" fill="#FFFFFF" width="8.072" height="7"/>
		<rect x="360.41" y="76.512" fill="#292929" width="12.771" height="6.998"/>
	</g>
	<g>
		<g>
			<path fill="#383838" d="M177.67,131.334c0,2.2-1.8,4-4,4h-29.146c-2.2,0-4-1.8-4-4V79.086c0-2.2,1.8-4,4-4h29.146
				c2.2,0,4,1.8,4,4V131.334z"/>
		</g>
		<rect x="142.682" y="71.711" fill="#292929" width="32.828" height="3.438"/>
		<rect x="140.523" y="61.398" fill="#303030" width="37.146" height="10.375"/>
		<rect x="140.523" y="86.961" fill="#D1C80B" width="37.146" height="36.875"/>
		<g>
			<g>
				<path fill="#303030" d="M174.498,114.063c0,1.1-0.9,2-2,2h-29.98c-1.1,0-2-0.9-2-2v-19.51c0-1.1,0.9-2,2-2h29.98
					c1.1,0,2,0.9,2,2V114.063z"/>
			</g>
			<rect x="140.518" y="92.553" fill="#303030" width="23.283" height="23.51"/>
		</g>
		<g opacity="0.3">
			<path fill="#303030" d="M176.801,127.627c0,1.65-1.35,3-3,3h-3.574c-1.65,0-3-1.35-3-3V81.959c0-1.65,1.35-3,3-3h3.574
				c1.65,0,3,1.35,3,3V127.627z"/>
		</g>
		<rect x="141.809" y="62.232" opacity="0.2" fill="#FFFFFF" width="5.771" height="8.688"/>
		<rect x="167.85" y="62.314" fill="#292929" width="9.131" height="8.688"/>
		<text transform="matrix(1 0 0 1 141.9111 113.2051)" fill="#FFFFFF" font-family="'ArticulateExtrabold'" font-size="6">Vitamina</text>
		<g opacity="0.1">
			<path fill="#FFFFFF" d="M148.369,130.793c0,0.55-0.45,1-1,1h-4.125c-0.55,0-1-0.45-1-1v-50.25c0-0.55,0.45-1,1-1h4.125
				c0.55,0,1,0.45,1,1V130.793z"/>
		</g>
	</g>
</g>
<circle fill="#222933" cx="-15.002" cy="-323.998" r="88.334"/>
<g>
	<rect x="-34.166" y="-392.52" fill="#303030" width="42.854" height="7.793"/>
	<path fill="#383838" d="M26.991-359.499c-1.928-12.525-12.911-22.125-26.172-22.125h-27.68c-14.621,0-26.473,11.669-26.473,26.063
		c0,1.485,0.133,2.938,0.375,4.354l-0.166,67.041c-0.074,0.516,0.041,3.132,0.041,3.667s0.051,1.057,0.125,1.572l0.156,0.959
		l0.176,0.594c1.348,4.552,5.555,7.875,10.543,7.875h58.5c4.988,0,9.195-3.323,10.543-7.875l0.191-0.781l0.063-0.703
		c0.074-0.516,0.094-1.199,0.094-1.734s0.059-0.963-0.016-1.479"/>
	<rect x="-53.322" y="-354.707" fill="#D5494A" width="80.438" height="59"/>
	<rect x="-32.646" y="-384.811" fill="#292929" width="39.813" height="3.938"/>
	<g>
		<g>
			<path fill="#303030" d="M14.178-312.982c0,1.1-0.9,2-2,2h-63.5c-1.1,0-2-0.9-2-2v-27c0-1.1,0.9-2,2-2h63.5c1.1,0,2,0.9,2,2
				V-312.982z"/>
		</g>
		<rect x="-53.322" y="-341.982" fill="#303030" width="46.25" height="31"/>
	</g>
	<path opacity="0.2" fill="#FFFFFF" d="M-29.708-285.058c0,4.452-3.881,8.06-8.667,8.06l0,0c-4.786,0-8.667-3.607-8.667-8.06
		v-75.632c0-4.45,3.881-8.059,8.667-8.059l0,0c4.786,0,8.667,3.608,8.667,8.059V-285.058z"/>
	<text transform="matrix(1 0 0 1 -50.209 -314.2324)" fill="#FFFFFF" font-family="'ArticulateExtrabold'" font-size="18.7922">WHEY</text>
	<rect x="-33.374" y="-392.248" opacity="0.2" fill="#FFFFFF" width="8.833" height="7"/>
	<rect x="-7.438" y="-391.852" fill="#292929" width="15.854" height="6.313"/>
	<path opacity="0.2" fill="#292929" d="M25.626-292.282c0,8.441-5.672,15.284-12.668,15.284l0,0
		c-6.995,0-12.666-6.843-12.666-15.284v-60.433c0-8.44,5.671-15.283,12.666-15.283l0,0c6.996,0,12.668,6.843,12.668,15.283V-292.282
		z"/>
</g>
<g>
	<g>
		<path fill="#383838" d="M73.672-267.082c0,2.2-1.8,4-4,4h-56.5c-2.2,0-4-1.8-4-4v-52.249c0-2.2,1.8-4,4-4h56.5c2.2,0,4,1.8,4,4
			V-267.082z"/>
	</g>
	<rect x="12.922" y="-326.706" fill="#292929" width="57" height="3.438"/>
	<rect x="9.172" y="-337.019" fill="#303030" width="64.5" height="10.375"/>
	<rect x="9.172" y="-311.456" fill="#73BD70" width="64.5" height="36.875"/>
	<g>
		<g>
			<path fill="#303030" d="M68.164-284.354c0,1.1-0.9,2-2,2h-55c-1.1,0-2-0.9-2-2v-19.51c0-1.1,0.9-2,2-2h55c1.1,0,2,0.9,2,2
				V-284.354z"/>
		</g>
		<rect x="9.164" y="-305.863" fill="#303030" width="40.426" height="23.51"/>
	</g>
	<text transform="matrix(1 0 0 1 9.8291 -286.5137)" fill="#FFFFFF" font-family="'ArticulateExtrabold'" font-size="16.3025">BCAA</text>
	<g opacity="0.1">
		<path fill="#FFFFFF" d="M22.164-271.706c0,2.2-1.8,4-4,4h-2.375c-2.2,0-4-1.8-4-4v-43.25c0-2.2,1.8-4,4-4h2.375c2.2,0,4,1.8,4,4
			V-271.706z"/>
	</g>
	<g opacity="0.3">
		<path fill="#303030" d="M72.164-270.79c0,1.65-1.35,3-3,3H58.539c-1.65,0-3-1.35-3-3v-45.667c0-1.65,1.35-3,3-3h10.625
			c1.65,0,3,1.35,3,3V-270.79z"/>
	</g>
	<rect x="11.623" y="-336.185" opacity="0.2" fill="#FFFFFF" width="10.021" height="8.688"/>
	<rect x="56.623" y="-336.102" fill="#292929" width="15.854" height="8.688"/>
</g>
<g>
	<g>
		<path fill="#383838" d="M-51.966-267.082c0,2.2-1.8,4-4,4h-29.146c-2.2,0-4-1.8-4-4v-52.25c0-2.2,1.8-4,4-4h29.146
			c2.2,0,4,1.8,4,4V-267.082z"/>
	</g>
	<rect x="-86.953" y="-326.707" fill="#292929" width="32.828" height="3.438"/>
	<rect x="-89.112" y="-337.019" fill="#303030" width="37.146" height="10.375"/>
	<rect x="-89.112" y="-311.457" fill="#4E9BDF" width="37.146" height="36.875"/>
	<g>
		<g>
			<path fill="#303030" d="M-55.138-284.354c0,1.1-0.9,2-2,2h-29.979c-1.1,0-2-0.9-2-2v-19.509c0-1.1,0.9-2,2-2h29.979
				c1.1,0,2,0.9,2,2V-284.354z"/>
		</g>
		<rect x="-89.117" y="-305.863" fill="#303030" width="23.282" height="23.509"/>
	</g>
	<g opacity="0.3">
		<path fill="#303030" d="M-52.834-270.791c0,1.65-1.35,3-3,3h-3.575c-1.65,0-3-1.35-3-3v-45.666c0-1.65,1.35-3,3-3h3.575
			c1.65,0,3,1.35,3,3V-270.791z"/>
	</g>
	<rect x="-87.826" y="-336.185" opacity="0.2" fill="#FFFFFF" width="5.771" height="8.688"/>
	<rect x="-61.785" y="-336.101" fill="#292929" width="9.131" height="8.688"/>
	<text transform="matrix(1 0 0 1 -87.7236 -285.2109)" fill="#FFFFFF" font-family="'ArticulateExtrabold'" font-size="7.3317">Creatina</text>
	<g opacity="0.1">
		<path fill="#FFFFFF" d="M-81.266-267.623c0,0.55-0.45,1-1,1h-4.125c-0.55,0-1-0.45-1-1v-50.25c0-0.55,0.45-1,1-1h4.125
			c0.55,0,1,0.45,1,1V-267.623z"/>
	</g>
</g>
<path fill="#303030" d="M301.547-465.399L-1.002-483.498c0,0-52.462-97.538-22.5-127.5c58.068-58.068,270.416-58.068,328.484,0
	C334.944-581.036,301.547-465.399,301.547-465.399z"/>
</svg>
