<?xml version="1.0" encoding="utf-8"?>
<!-- Generator: Adobe Illustrator 16.0.0, SVG Export Plug-In . SVG Version: 6.00 Build 0)  -->
<!DOCTYPE svg PUBLIC "-//W3C//DTD SVG 1.1//EN" "http://www.w3.org/Graphics/SVG/1.1/DTD/svg11.dtd">
<svg version="1.1" id="Layer_1" xmlns="http://www.w3.org/2000/svg" xmlns:xlink="http://www.w3.org/1999/xlink" x="0px" y="0px"
	 width="450.453px" height="62.878px" viewBox="0 0 450.453 62.878" enable-background="new 0 0 450.453 62.878"
	 xml:space="preserve">
<rect x="-1040.087" y="11.211" width="843.096" height="595.28"/>
<g opacity="0.4">
	<g>
		<path fill="#666666" d="M-552.442,216.203c36.612,10.105,47.36-10.327,48.112-11.854c-0.013-0.003-0.019-0.009-0.031-0.012
			c-12.719,17.617-49.179,5.327-54.596-4.064c-5.433-9.416-28.967-9.416-28.967-9.416c23.032-3.527,31.315-15.261,34.193-24.636
			c-1.237-0.389-2.577-0.714-3.992-0.995c-7.429,10.396-19.992,11.826-39.145,8.771c-6.375,4.857-11.449,10.801-15.563,15.626
			c-0.927,1.096-1.818,2.136-2.652,3.089c-1.171,1.329-2.164,2.511-3.04,3.553c-4.052,4.83-6.28,7.493-13.237,9.339
			c-7.696,2.045-13.622,2.174-13.873,2.178c-1.146,0.003-2.192-0.643-2.679-1.679c-0.48-1.044-0.301-2.273,0.464-3.14
			c0.833-0.937,16.416-18.458,32.438-31.367c-23.571,0.855-33.181,24.542-33.181,24.542c3.393-41.618,68.384-54.722,68.374-54.722
			c-87.341,5.25-92.584,53.448-92.584,53.448c-2.545-19.96-16.985-26.756-16.985-26.756c2.973,9.768,2.124,31.854-2.124,45.019
			c-4.246,13.167-32.701,30.155-32.701,30.155c6.792,14.435-12.416,40.175-23.031,44.839c-7.874,3.464-13.919,4.414-13.919,4.414
			c7.646,12.337-7.521,26.425-7.521,26.425c2.55,14.206-9.892,32.616-9.892,32.616s31.349-26.039,37.862-29.291
			c6.516-3.262,27.155-4.711,27.881,7.961c0,0,17.74-18.465,17.376-28.241c0,0-3.26-4.71-2.173-7.596
			c1.084-2.899,11.225-11.944,15.926-15.198c4.713-3.262,14.122-2.555,18.83-1.104c4.706,1.448,6.153-7.605,6.519-10.136
			c0.36-2.53,0-8.697,5.795-8.328c5.789,0.364,7.602,2.534,10.499,2.175c2.891-0.36,17.577-7.606,18.747-10.5
			c1.171-2.895,0.079-12.671,6.23-14.482c6.159-1.812,65.54,0.719,51.412,74.581c15.94-28.236,5.074-70.959,5.074-70.959
			c53.222,14.841,30.767,71.683,30.767,71.683c3.982-7.241,14.846-41.64,2.903-68.223c-11.954-26.589-49.962-29.167-49.962-29.167
			C-566.563,213.307-552.442,216.203-552.442,216.203z M-689.18,241.794c0.119,0.661,0.342,3.016-1.266,7.479
			c-3.114,8.647-12.815,12.93-12.815,12.93s1.649-8.797,6.455-14.164c0.138-0.164,0.276-0.306,0.412-0.444
			c1.756-1.97,7.265-8.249,12.219-11.956C-684.175,235.641-687.075,238.453-689.18,241.794z"/>
		<path fill="#666666" d="M-659.588,294.449c20.969,12.499,39.388,4.948,39.388,4.948c-14.48,16.749-28.064,12.621-39.653,20.837
			c-11.58,8.203-42.547,44.809-32.411,58.086c10.139,13.28,28.725,7.296,28.725,7.296c-23.173,15.449-44.17-1.201-44.17-1.201
			c-3.618,7.473-7.183,7.186-7.183,7.186c5.613-12.865-19.367-22.646-19.367-22.646c15.929,2.188,23.179-5.921,23.179-5.921
			c-6.309-1.746-7.973-6.018-7.973-6.018c5.068,0,12.808-0.153,17.33-2.538c19.184-10.141,30.663-49.064,23.647-54.285
			c-13.198-9.806-6.146-16.615-1.464-19.41c5.271-3.149,15.271-0.737,15.271-0.737S-666.709,290.203-659.588,294.449z"/>
		<path fill="#666666" d="M-620.078,254.988c-9.979,7.237-18.005,10.614-20.52,9.899c-3.385-0.966-5.58-2.105-7.776-2.49
			c-4.67-0.824-5.785,5.685-6.014,10.863c-0.235,5.171-5.991,9.037-5.991,9.037C-658.893,281.982-629.972,285.768-620.078,254.988z"
			/>
		<path fill="#666666" d="M-660.435,285.818c0,0,12.206,0,22.315-4.522c8.843-3.966,14.968-8.914,20.067-23.539
			c0,0-2.771,25.694,9.304,19.419c0,0,1.063,7.019-10.421,6.225c-3.451-0.235-7.648,3.434-0.519,5.906
			c7.115,2.465,1.989,6.567-1.987,7.672c-3.297,0.934-11.955,3.247-27.159-1.341C-660.846,292.022-661.356,287.784-660.435,285.818z
			"/>
		<path fill="#666666" d="M-592.608,277.268c38.421,19.23-17.285,95.669-54.476,133.332c-46.526,47.109-15.853,81.584-15.853,81.584
			s-15.828-37.172,17.717-69.47c32.856-31.625,83.917-81.686,79.583-130.941c-4.326-49.249-42.928-53.148-47.688-51.605
			c-4.765,1.549-5.182,7.447-4.806,10.253c0.643,4.693,2.695,6.006,2.965,8.157c0.521,4.175-0.368,14.323,6.436,15.562
			C-601.922,275.377-597.619,274.75-592.608,277.268z"/>
		<path fill="#666666" d="M-590.793,393.769c24.391-23.264,54.047-66.346,61.736-95.045c8.809-32.905-17.692-50.12-24.153-51.398
			c9.622,34.979-2.723,67.775-18.783,98.319c-9.886,18.804-20.187,35.801-33.629,50.835c-12.757,14.277-17.529,20.687-30.168,33.197
			C-635.79,429.677-600.548,403.061-590.793,393.769z"/>
		<path fill="#666666" d="M-534.772,137.629c-74.902-6.145-87.692-15.638-122.198-10.765c-50.744,7.17-50.715,51.297-50.09,60.391
			c1.349,19.424,3.8,33.574,3.8,33.574s8.53-8.849,8.53-13.299c0-4.454-4.299-7.715-4.282-27.06
			c0.008-11.705,10.104-38.506,39.975-47.034C-621.313,122.667-587.645,134.915-534.772,137.629z"/>
		<path fill="#666666" d="M-450.004,211.732c-74.448-10.154-73.925-33.323-92.146-47.118c-15.277-11.572-37.507-11.512-57.973,0.089
			c-19.211,10.887-45.157,40.181-45.157,40.181s5.729-0.104,13.17-2.082c7.438-1.972,8.351-4.595,14.847-12
			c6.871-7.815,16.731-21.131,32.053-26.511c15.328-5.39,35.035-1.69,42.273,5.372c8.165,7.964,17.019,18.695,28.799,26.336
			C-502.353,203.646-485.403,206.522-450.004,211.732z"/>
		<path fill="#666666" d="M-691.001,318.309c-3.913,21.64-26.161,31.516-37.781,37.284c-11.615,5.765-34.801,16.486-34.156,18.925
			c0.834,3.163,0.228,4.375-3.409,12.369c-3.926,8.638-2.927,17.247-2.927,17.247c-3.813-12.206,1.971-26.935,1.971-26.935
			c-17.512,13.085-18.564,27.942-18.564,27.942c2.483-21.313,18.584-34.143,37.173-42.764c18.589-8.643,44.715-17.297,53-39.363
			c6.159-16.39,2.796-28.329,7.614-35.292C-690.93,293.921-688.951,306.973-691.001,318.309z"/>
	</g>
</g>
<g>
	<g>
		<path fill="#666666" d="M-1023.161-316.175c6.707,1.851,8.676-1.892,8.814-2.172c-0.002,0-0.003-0.001-0.006-0.002
			c-2.33,3.227-9.009,0.976-10.002-0.745c-0.995-1.725-5.306-1.725-5.306-1.725c4.219-0.646,5.737-2.796,6.264-4.513
			c-0.227-0.071-0.472-0.131-0.731-0.182c-1.361,1.904-3.663,2.167-7.171,1.607c-1.168,0.89-2.097,1.979-2.851,2.863
			c-0.169,0.201-0.333,0.391-0.486,0.566c-0.214,0.243-0.396,0.46-0.557,0.651c-0.743,0.885-1.151,1.373-2.425,1.711
			c-1.41,0.375-2.495,0.398-2.542,0.399c-0.209,0-0.401-0.118-0.491-0.308c-0.088-0.191-0.055-0.417,0.085-0.575
			c0.153-0.172,3.007-3.381,5.942-5.747c-4.318,0.157-6.078,4.496-6.078,4.496c0.622-7.624,12.527-10.025,12.525-10.025
			c-16,0.962-16.96,9.792-16.96,9.792c-0.466-3.656-3.112-4.901-3.112-4.901c0.544,1.79,0.389,5.835-0.389,8.247
			c-0.778,2.412-5.991,5.524-5.991,5.524c1.244,2.645-2.275,7.36-4.219,8.214c-1.443,0.634-2.55,0.809-2.55,0.809
			c1.4,2.26-1.378,4.841-1.378,4.841c0.467,2.603-1.813,5.975-1.813,5.975s5.743-4.77,6.937-5.366
			c1.194-0.598,4.975-0.863,5.107,1.458c0,0,3.25-3.382,3.184-5.173c0,0-0.597-0.863-0.398-1.392
			c0.199-0.531,2.057-2.188,2.918-2.784c0.863-0.598,2.587-0.468,3.449-0.202c0.862,0.265,1.127-1.394,1.194-1.857
			c0.066-0.463,0-1.593,1.062-1.526c1.061,0.067,1.393,0.464,1.923,0.399c0.53-0.066,3.22-1.394,3.435-1.924
			s0.015-2.321,1.141-2.653c1.128-0.332,12.007,0.131,9.418,13.663c2.92-5.172,0.93-12.999,0.93-12.999
			c9.75,2.719,5.637,13.132,5.637,13.132c0.729-1.327,2.72-7.628,0.532-12.498c-2.19-4.871-9.153-5.343-9.153-5.343
			C-1025.748-316.706-1023.161-316.175-1023.161-316.175z M-1048.211-311.487c0.022,0.121,0.063,0.553-0.232,1.371
			c-0.57,1.584-2.348,2.369-2.348,2.369s0.302-1.612,1.183-2.595c0.025-0.03,0.05-0.056,0.075-0.082
			c0.322-0.361,1.331-1.511,2.239-2.19C-1047.294-312.614-1047.826-312.099-1048.211-311.487z"/>
		<path fill="#666666" d="M-1042.79-301.841c3.841,2.29,7.216,0.907,7.216,0.907c-2.653,3.068-5.141,2.312-7.264,3.817
			c-2.122,1.502-7.794,8.208-5.938,10.641c1.857,2.433,5.262,1.337,5.262,1.337c-4.245,2.83-8.092-0.22-8.092-0.22
			c-0.663,1.369-1.316,1.316-1.316,1.316c1.028-2.357-3.548-4.148-3.548-4.148c2.918,0.401,4.246-1.085,4.246-1.085
			c-1.156-0.32-1.46-1.103-1.46-1.103c0.928,0,2.346-0.028,3.175-0.465c3.514-1.858,5.617-8.988,4.332-9.945
			c-2.418-1.796-1.126-3.044-0.268-3.556c0.965-0.577,2.797-0.135,2.797-0.135S-1044.094-302.619-1042.79-301.841z"/>
		<path fill="#666666" d="M-1035.552-309.07c-1.828,1.326-3.298,1.944-3.759,1.813c-0.62-0.177-1.022-0.385-1.424-0.456
			c-0.855-0.151-1.06,1.042-1.102,1.99c-0.043,0.947-1.098,1.655-1.098,1.655C-1042.663-304.125-1037.364-303.431-1035.552-309.07z"
			/>
		<path fill="#666666" d="M-1042.945-303.422c0,0,2.236,0,4.088-0.828c1.62-0.727,2.742-1.633,3.677-4.313
			c0,0-0.508,4.707,1.704,3.558c0,0,0.194,1.286-1.909,1.14c-0.632-0.043-1.401,0.629-0.095,1.082
			c1.304,0.452,0.365,1.203-0.364,1.406c-0.604,0.171-2.19,0.595-4.976-0.246C-1043.021-302.286-1043.114-303.062-1042.945-303.422z
			"/>
		<path fill="#666666" d="M-1030.52-304.989c7.039,3.523-3.167,17.526-9.979,24.426c-8.523,8.63-2.904,14.946-2.904,14.946
			s-2.9-6.81,3.246-12.726c6.019-5.794,15.373-14.965,14.579-23.988c-0.792-9.022-7.864-9.736-8.736-9.454
			c-0.873,0.284-0.949,1.364-0.88,1.878c0.118,0.86,0.494,1.1,0.543,1.494c0.095,0.765-0.067,2.624,1.179,2.851
			C-1032.226-305.335-1031.438-305.45-1030.52-304.989z"/>
		<path fill="#666666" d="M-1030.187-283.646c4.468-4.262,9.901-12.154,11.31-17.412c1.613-6.028-3.241-9.182-4.425-9.416
			c1.763,6.408-0.499,12.416-3.441,18.012c-1.812,3.444-3.698,6.558-6.161,9.313c-2.337,2.616-3.211,3.79-5.527,6.082
			C-1038.43-277.068-1031.974-281.944-1030.187-283.646z"/>
		<path fill="#666666" d="M-1019.924-330.57c-13.722-1.125-16.065-2.865-22.386-1.972c-9.296,1.313-9.291,9.397-9.177,11.063
			c0.248,3.558,0.696,6.15,0.696,6.15s1.563-1.621,1.563-2.436c0-0.816-0.788-1.414-0.784-4.957
			c0.001-2.145,1.851-7.055,7.323-8.617C-1035.778-333.311-1029.61-331.067-1019.924-330.57z"/>
		<path fill="#666666" d="M-1004.395-316.995c-13.639-1.86-13.542-6.104-16.881-8.631c-2.799-2.12-6.871-2.109-10.62,0.016
			c-3.52,1.995-8.273,7.361-8.273,7.361s1.05-0.019,2.413-0.381c1.362-0.361,1.53-0.842,2.72-2.198
			c1.258-1.432,3.065-3.871,5.872-4.856c2.808-0.987,6.418-0.31,7.745,0.984c1.496,1.459,3.118,3.425,5.276,4.825
			C-1013.985-318.476-1010.88-317.949-1004.395-316.995z"/>
		<path fill="#666666" d="M-1048.544-297.47c-0.717,3.964-4.793,5.773-6.921,6.83c-2.128,1.056-6.375,3.02-6.257,3.467
			c0.153,0.58,0.042,0.802-0.625,2.266c-0.719,1.582-0.536,3.16-0.536,3.16c-0.699-2.236,0.361-4.935,0.361-4.935
			c-3.208,2.397-3.401,5.119-3.401,5.119c0.455-3.904,3.404-6.255,6.81-7.834c3.405-1.583,8.191-3.168,9.709-7.211
			c1.128-3.002,0.512-5.189,1.395-6.465C-1048.532-301.938-1048.169-299.547-1048.544-297.47z"/>
	</g>
</g>
<text transform="matrix(0.985 0.1728 -0.1728 0.985 -562.5293 680.4731)" fill="#666666" font-family="'Dosis-Regular'" font-size="29.5798">SUPLEMENTOS DE QUALIDADE</text>
<polygon opacity="0.15" points="-1371.981,-966.691 -1994.302,-1317.126 -1841.825,-1471.08 -2222.624,-1872.991 
	-3442.373,-1872.991 -3442.373,-966.691 "/>
<polygon fill="#E6ECED" points="-1491.899,11.211 -2114.221,-921.194 -1961.742,-1330.818 -2342.542,-2400.183 -3562.291,-2400.183 
	-3562.291,11.211 "/>
<polygon fill="#841F00" points="-2859.488,-2276.991 -2361.63,-1898.519 -2570.785,-1683.56 -1735.025,-1370.691 
	-2357.347,-1721.126 -2204.868,-1875.08 -2585.668,-2276.991 "/>
<polygon opacity="0.2" points="-2356.896,-1902.519 -2200.134,-1879.08 -2352.612,-1725.126 -2566.051,-1687.56 "/>
<polyline opacity="0.7" fill="none" stroke="#515151" stroke-width="0.75" stroke-miterlimit="10" points="-2909.734,-2277.9 
	-2471.825,-1899.428 -2627.056,-1675.391 -1904.62,-1369.782 "/>
<polyline opacity="0.7" fill="none" stroke="#7C0000" stroke-width="0.75" stroke-miterlimit="10" points="-3382.532,-733.361 
	-3048.494,-418.46 -2225.547,-188.44 "/>
<polygon opacity="0.4" fill="#5F6060" points="-1849.443,550.451 -1712.25,608.391 -1742.458,641.697 -1445.689,702.218 
	-1849.443,702.218 "/>
<polygon fill="#3D3F3E" points="-1711.25,608.879 -1848.443,512.765 -1848.443,550.938 "/>
<polygon opacity="0.2" points="-3675.942,-600.174 -3938.153,-783.873 -3938.153,-710.915 "/>
<polygon fill="#353535" points="-1444.689,702.218 -1724.663,622.93 -1742.045,641.775 "/>
<polygon opacity="0.2" points="-3641.386,-216.562 -4213.924,-353.712 -4264.85,-324.228 "/>
<g>
	<polygon opacity="0.8" fill="#92FCFF" points="336.053,514.114 271.556,578.609 264.804,626.039 376.729,514.114 	"/>
	<polygon opacity="0.8" fill="#92FCFF" points="387.056,503.789 531.565,359.279 523.372,326.795 346.378,503.789 	"/>
</g>
<polygon fill="#16BFFD" points="-123.281,420.49 -153.807,436.786 -135.438,443.791 "/>
<polygon fill="#444242" points="-891.668,634.937 -909.22,656.521 -885.969,654.644 "/>
<polygon fill="#444242" points="-804.361,-61.414 -1086.072,220.294 -1145.104,206.452 -881.753,-56.898 "/>
<linearGradient id="SVGID_1_" gradientUnits="userSpaceOnUse" x1="-1101.7451" y1="92.3828" x2="-810.6655" y2="92.3828">
	<stop  offset="0.064" style="stop-color:#00EAAD"/>
	<stop  offset="0.9163" style="stop-color:#059B73"/>
</linearGradient>
<polygon fill="url(#SVGID_1_)" points="-810.666,-37.493 -1070.419,222.259 -1101.745,190.93 -877.995,-32.818 "/>
<polygon fill="#444242" points="325.299,580.413 558.111,347.6 552.135,401.342 376.628,576.849 "/>
<polygon opacity="0.9" fill="#30EFC1" points="-930.355,73.783 -1097.081,240.509 -1099.394,181.62 -916.342,-2.885 "/>
<polygon fill="#666666" points="357.159,614.959 519.19,452.927 552.644,452.784 361.071,645.149 "/>
<path fill="#444242" d="M-793.189-3.021c0.227,0.226,0.227,0.593,0,0.819L-971.1,175.708c-0.227,0.228-0.593,0.228-0.82,0l0,0
	c-0.227-0.225-0.227-0.594,0-0.818l177.911-177.91C-793.782-3.247-793.416-3.247-793.189-3.021L-793.189-3.021z"/>
<path fill="#444242" d="M602.844,360.098c0.227,0.226,0.129,0.689-0.22,1.038L329.565,634.193c-0.348,0.349-0.813,0.447-1.039,0.22
	l0,0c-0.225-0.226-0.127-0.692,0.22-1.039l273.059-273.057C602.153,359.968,602.617,359.871,602.844,360.098L602.844,360.098z"/>
<polygon opacity="0.8" fill="#92FCFF" points="514.582,576.007 520.924,544.315 474.135,591.394 "/>
<g>
	<polygon opacity="0.8" fill="#92FCFF" points="-998.173,123.691 -1127.703,253.222 -1143.956,310.149 -998.173,164.367 	"/>
	<polygon opacity="0.8" fill="#92FCFF" points="-987.848,113.365 -987.848,154.042 -857.411,23.606 -850.66,-23.823 	"/>
</g>
<path fill="#5DF9D0" d="M-734.531-42.776c0.227,0.227,0.227,0.594,0,0.82l-177.909,177.91c-0.228,0.227-0.595,0.227-0.821,0l0,0
	c-0.226-0.227-0.226-0.593,0-0.82l177.911-177.91C-735.124-43.003-734.756-43.003-734.531-42.776L-734.531-42.776z"/>
<path fill="#EDEEF0" d="M-732.305-39.109c0.227,0.227,0.227,0.595,0,0.82l-177.91,177.91c-0.228,0.227-0.595,0.227-0.821,0l0,0
	c-0.226-0.226-0.226-0.594,0-0.82l177.911-177.91C-732.898-39.335-732.531-39.335-732.305-39.109L-732.305-39.109z"/>
<path fill="#444242" d="M417.771,401.872c0.227,0.226,0.227,0.593,0,0.819L239.86,580.6c-0.228,0.228-0.594,0.228-0.82,0l0,0
	c-0.227-0.225-0.227-0.594,0-0.818l177.911-177.91C417.178,401.645,417.544,401.645,417.771,401.872L417.771,401.872z"/>
<path fill="#EDEEF0" d="M425.164,411.968c0.227,0.227,0.227,0.595,0,0.82l-177.91,177.91c-0.229,0.227-0.595,0.227-0.82,0l0,0
	c-0.227-0.226-0.227-0.594,0-0.82l177.91-177.91C424.57,411.743,424.938,411.743,425.164,411.968L425.164,411.968z"/>
<rect x="-929.153" y="102.122" fill="#282828" width="7.111" height="0"/>
<g>
	<polygon fill="#1E6477" points="-902.444,91.797 -844.35,33.703 -848.987,29.066 -911.717,91.797 	"/>
	<polygon fill="#1E6477" points="-922.042,102.122 -1119.738,299.819 -1120.796,310.149 -912.769,102.122 	"/>
</g>
<linearGradient id="SVGID_2_" gradientUnits="userSpaceOnUse" x1="375.7793" y1="519.3784" x2="562.3389" y2="519.3784">
	<stop  offset="0.064" style="stop-color:#00EAAD"/>
	<stop  offset="0.9163" style="stop-color:#059B73"/>
</linearGradient>
<polygon fill="url(#SVGID_2_)" points="375.779,612.659 562.339,426.098 555.35,460.658 407.363,609.298 "/>
<polygon fill="#C2C3C9" points="-963.204,955.881 -953.535,907.562 -1024.874,979.341 "/>
<polygon fill="#92FCFF" points="-967.364,951.721 -957.695,903.402 -1029.032,975.181 "/>
<polygon fill="#526AC6" points="-930.658,1152.055 -995.512,1176.233 -923.905,1104.625 "/>
<g opacity="0.9">
	<g>
		<polygon opacity="0.9" fill="#30EFC1" points="445.511,476.745 483.915,438.049 471.883,388.883 445.511,415.255 		"/>
		<polygon opacity="0.9" fill="#30EFC1" points="435.185,425.582 305.157,555.608 291.142,632.277 435.185,487.148 		"/>
	</g>
</g>
<linearGradient id="SVGID_3_" gradientUnits="userSpaceOnUse" x1="411.5527" y1="417.8735" x2="574.9697" y2="417.8735">
	<stop  offset="0.064" style="stop-color:#00EAAD"/>
	<stop  offset="0.9163" style="stop-color:#059B73"/>
</linearGradient>
<polygon fill="url(#SVGID_3_)" points="574.97,337.11 411.553,500.529 412.951,465.535 542.469,335.218 "/>
<g>
	<g>
		<g opacity="0.75">
			<path fill="#008759" d="M-782.895,281.265c0,3.283-1.068,6.369-3.09,8.928c-0.348,0.441-0.731,0.873-1.14,1.281
				c-2.729,2.729-6.354,4.23-10.211,4.23h-15.363l-10.822-10.821v-18.059h26.186c3.858,0,7.484,1.502,10.211,4.229
				c1.886,1.887,3.209,4.24,3.826,6.802C-783.03,278.963-782.895,280.11-782.895,281.265z M-823.521,290.482l12.254,12.254v13.338
				h-12.254V290.482z M-795.51,281.265c0-0.338-0.039-0.671-0.116-0.991c-0.18-0.744-0.564-1.427-1.113-1.977
				c-0.792-0.792-1.845-1.228-2.966-1.228h-11.562v1.66l6.731,6.731h4.83c1.121,0,2.174-0.436,2.966-1.229
				c0.123-0.122,0.234-0.248,0.332-0.373l0.002-0.002C-795.819,283.116-795.51,282.219-795.51,281.265z"/>
			<path fill="#008759" d="M-725.208,316.074h-18.982l-0.29-0.289l-18.979-18.921v0.038l-12.253-12.254v-18.059h33.066
				c0.964,0,1.927,0.095,2.861,0.282c2.781,0.557,5.322,1.921,7.349,3.947c1.886,1.887,3.209,4.239,3.827,6.802
				c0.268,1.106,0.402,2.253,0.402,3.408c0,0.511-0.026,1.022-0.077,1.521c-0.162,3.962-1.774,7.668-4.542,10.439
				c-2.791,2.795-6.511,4.385-10.474,4.478h-0.019l-0.179-0.005c-0.216,0.005-0.434,0.006-0.649,0.001L-725.208,316.074z
				 M-775.713,290.246l12.253,12.255v13.573h-12.253V290.246z M-744.19,285.144c0.2-0.04,0.399-0.094,0.59-0.163
				c0.584-0.208,1.104-0.54,1.549-0.985c0.063-0.063,0.122-0.125,0.175-0.184c0.016-0.018,0.029-0.034,0.044-0.051l0.014-0.017
				c0.029-0.034,0.058-0.068,0.084-0.102l0.018-0.021c0.043-0.055,0.087-0.114,0.138-0.187c0.038-0.052,0.073-0.105,0.106-0.158
				c0.104-0.16,0.195-0.329,0.274-0.501c0.251-0.545,0.378-1.133,0.378-1.748c0-0.084-0.003-0.169-0.008-0.252
				c-0.005-0.084-0.012-0.168-0.021-0.25c-0.02-0.166-0.05-0.329-0.088-0.487c-0.056-0.23-0.132-0.458-0.229-0.679h-21.425
				l5.864,5.864h11.711C-744.738,285.225-744.46,285.197-744.19,285.144z"/>
			<path fill="#008759" d="M-691.019,301.451l8.737,8.738l-0.886,0.688c-4.372,3.4-9.618,5.197-15.171,5.197
				c-6.61,0-12.823-2.573-17.496-7.246c-4.674-4.674-7.247-10.887-7.247-17.496c0-5.553,1.797-10.8,5.197-15.172l0.688-0.885
				l8.737,8.737l-0.424,0.67c-1.255,1.979-1.917,4.278-1.917,6.65c0,3.328,1.296,6.458,3.649,8.811
				c2.354,2.354,5.482,3.65,8.812,3.65c2.371,0,4.671-0.662,6.65-1.917L-691.019,301.451z M-673.596,291.332
				c0,5.553-1.797,10.799-5.197,15.172l-0.688,0.885l-8.737-8.736l0.424-0.67c1.255-1.979,1.917-4.279,1.917-6.65
				c0-3.329-1.296-6.458-3.649-8.811c-2.353-2.354-5.482-3.65-8.811-3.65c-2.372,0-4.672,0.663-6.651,1.917l-0.669,0.424
				l-8.737-8.737l0.885-0.688c4.373-3.4,9.619-5.197,15.173-5.197c6.609,0,12.822,2.573,17.496,7.247
				C-676.169,278.509-673.596,284.722-673.596,291.332z"/>
			<path fill="#008759" d="M-617.215,291.332c0,5.004-1.479,9.825-4.275,13.941c-0.043,0.063-0.09,0.131-0.137,0.198
				c-4.602,6.638-12.15,10.603-20.189,10.603h-24.602v-29.86l12.287,12.286v5.227h12.314c0.271,0,0.543-0.008,0.808-0.025
				c3.749-0.244,7.139-2.17,9.299-5.285c0.026-0.036,0.046-0.066,0.066-0.096c1.401-2.063,2.142-4.479,2.142-6.988
				c0-2.529-0.752-4.962-2.174-7.036c-0.008-0.012-0.015-0.021-0.021-0.03l-0.01-0.014c-2.309-3.328-6.087-5.315-10.109-5.315
				h-12.314v13.965l-12.287-12.288v-14.025h24.602c8.039,0,15.588,3.964,20.191,10.605c0.022,0.031,0.045,0.065,0.069,0.1
				C-618.716,281.431-617.215,286.286-617.215,291.332z"/>
			<path fill="#008759" d="M-597.789,266.589v18.361l-12.254-12.254v-6.107H-597.789z M-610.043,278.295l12.254,12.254v25.524
				h-12.254V278.295z"/>
			<path fill="#008759" d="M-541.117,295.431v20.549h-12.254v-3.284c-3.777,2.214-8.068,3.378-12.49,3.378
				c-6.609,0-12.822-2.573-17.496-7.246c-4.672-4.674-7.246-10.887-7.246-17.496c0-3.729,0.809-7.313,2.404-10.651l0.604-1.262
				l9.496,9.498l-0.076,0.494c-0.098,0.629-0.146,1.275-0.146,1.922c0,3.328,1.297,6.458,3.65,8.811
				c2.354,2.354,5.482,3.65,8.811,3.65c2.568,0,4.998-0.758,7.074-2.198l-4.496-6.163H-541.117z M-576.568,284.846l-8.785-8.783
				l0.588-0.696c4.715-5.578,11.605-8.778,18.904-8.778c5.049,0,9.904,1.51,14.043,4.368c5.164,3.564,8.754,8.883,10.109,14.976
				l0.268,1.205H-554.1l-0.256-0.608c-0.623-1.496-1.531-2.844-2.695-4.008c-2.352-2.354-5.48-3.65-8.811-3.65
				c-3.328,0-6.457,1.296-8.811,3.65c-0.438,0.438-0.846,0.911-1.213,1.405L-576.568,284.846z"/>
			<path fill="#008759" d="M-521.688,266.589v18.361l-12.252-12.254v-6.107H-521.688z M-533.939,278.295l12.252,12.254v25.524
				h-12.252V278.295z"/>
			<path fill="#008759" d="M-502.219,284.396l-12.281-12.282v-5.525h12.281V284.396z M-488.477,303.736l9.781,9.781l-1.344,0.576
				c-3.076,1.314-6.346,1.98-9.719,1.98c-5.035,0-9.881-1.503-14.012-4.347c-6.721-4.624-10.73-12.248-10.73-20.396v-13.62
				l12.281,12.281v1.339c0,3.328,1.297,6.458,3.65,8.811c2.354,2.354,5.482,3.65,8.811,3.65c0.281,0,0.563-0.009,0.834-0.027
				L-488.477,303.736z M-465.016,266.589v24.743c0,3.876-0.871,7.588-2.59,11.031c-1.637,3.284-4.035,6.217-6.936,8.481
				l-0.691,0.538l-8.871-8.871l1.037-0.663c0.76-0.485,1.473-1.059,2.119-1.706c2.354-2.354,3.65-5.482,3.65-8.811v-24.743H-465.016
				z"/>
			<path fill="#008759" d="M-408.352,266.589v49.485h-12.254v-21.802l-12.49,12.504l-12.488-12.504v0.01l-12.254-12.253v-15.439
				h1.926l22.816,22.817l22.818-22.817H-408.352z M-457.838,287.627l12.254,12.253v16.193h-12.254V287.627z"/>
		</g>
		<g>
			<g>
				<path fill="#30EDBF" d="M-784.895,279.265c0,3.283-1.068,6.369-3.09,8.928c-0.348,0.441-0.731,0.873-1.14,1.281
					c-2.729,2.729-6.354,4.23-10.211,4.23h-15.363l-10.822-10.821v-18.059h26.186c3.858,0,7.484,1.502,10.211,4.229
					c1.886,1.887,3.209,4.24,3.826,6.802C-785.03,276.963-784.895,278.11-784.895,279.265z M-825.521,288.482l12.254,12.254v13.338
					h-12.254V288.482z M-797.51,279.265c0-0.338-0.039-0.671-0.116-0.991c-0.18-0.744-0.564-1.427-1.113-1.977
					c-0.792-0.792-1.845-1.228-2.966-1.228h-11.562v1.66l6.731,6.731h4.83c1.121,0,2.174-0.436,2.966-1.229
					c0.123-0.122,0.234-0.248,0.332-0.373l0.002-0.002C-797.819,281.116-797.51,280.219-797.51,279.265z"/>
				<path fill="#30EDBF" d="M-727.208,314.074h-18.982l-0.29-0.289l-18.979-18.921v0.038l-12.253-12.254v-18.059h33.066
					c0.964,0,1.927,0.095,2.861,0.282c2.781,0.557,5.322,1.921,7.349,3.947c1.886,1.887,3.209,4.239,3.827,6.802
					c0.268,1.106,0.402,2.253,0.402,3.408c0,0.511-0.026,1.022-0.077,1.521c-0.162,3.962-1.774,7.668-4.542,10.439
					c-2.791,2.795-6.511,4.385-10.474,4.478h-0.019l-0.179-0.005c-0.216,0.005-0.434,0.006-0.649,0.001L-727.208,314.074z
					 M-777.713,288.246l12.253,12.255v13.573h-12.253V288.246z M-746.19,283.144c0.2-0.04,0.399-0.094,0.59-0.163
					c0.584-0.208,1.104-0.54,1.549-0.985c0.063-0.063,0.122-0.125,0.175-0.184c0.016-0.018,0.029-0.034,0.044-0.051l0.014-0.017
					c0.029-0.034,0.058-0.068,0.084-0.102l0.018-0.021c0.043-0.055,0.087-0.114,0.138-0.187c0.038-0.052,0.073-0.105,0.106-0.158
					c0.104-0.16,0.195-0.329,0.274-0.501c0.251-0.545,0.378-1.133,0.378-1.748c0-0.084-0.003-0.169-0.008-0.252
					c-0.005-0.084-0.012-0.168-0.021-0.25c-0.02-0.166-0.05-0.329-0.088-0.487c-0.056-0.23-0.132-0.458-0.229-0.679h-21.425
					l5.864,5.864h11.711C-746.738,283.225-746.46,283.197-746.19,283.144z"/>
				<path fill="#30EDBF" d="M-693.019,299.451l8.737,8.738l-0.886,0.688c-4.372,3.4-9.618,5.197-15.171,5.197
					c-6.61,0-12.823-2.573-17.496-7.246c-4.674-4.674-7.247-10.887-7.247-17.496c0-5.553,1.797-10.8,5.197-15.172l0.688-0.885
					l8.737,8.737l-0.424,0.67c-1.255,1.979-1.917,4.278-1.917,6.65c0,3.328,1.296,6.458,3.649,8.811
					c2.354,2.354,5.482,3.65,8.812,3.65c2.371,0,4.671-0.662,6.65-1.917L-693.019,299.451z M-675.596,289.332
					c0,5.553-1.797,10.799-5.197,15.172l-0.688,0.885l-8.737-8.736l0.424-0.67c1.255-1.979,1.917-4.279,1.917-6.65
					c0-3.329-1.296-6.458-3.649-8.811c-2.353-2.354-5.482-3.65-8.811-3.65c-2.372,0-4.672,0.663-6.651,1.917l-0.669,0.424
					l-8.737-8.737l0.885-0.688c4.373-3.4,9.619-5.197,15.173-5.197c6.609,0,12.822,2.573,17.496,7.247
					C-678.169,276.509-675.596,282.722-675.596,289.332z"/>
				<path fill="#30EDBF" d="M-619.215,289.332c0,5.004-1.479,9.825-4.275,13.941c-0.043,0.063-0.09,0.131-0.137,0.198
					c-4.602,6.638-12.15,10.603-20.189,10.603h-24.602v-29.86l12.287,12.286v5.227h12.314c0.271,0,0.543-0.008,0.808-0.025
					c3.749-0.244,7.139-2.17,9.299-5.285c0.026-0.036,0.046-0.066,0.066-0.096c1.401-2.063,2.142-4.479,2.142-6.988
					c0-2.529-0.752-4.962-2.174-7.036c-0.008-0.012-0.015-0.021-0.021-0.03l-0.01-0.014c-2.309-3.328-6.087-5.315-10.109-5.315
					h-12.314v13.965l-12.287-12.288v-14.025h24.602c8.039,0,15.588,3.964,20.191,10.605c0.022,0.031,0.045,0.065,0.069,0.1
					C-620.716,279.431-619.215,284.286-619.215,289.332z"/>
				<path fill="#30EDBF" d="M-599.789,264.589v18.361l-12.254-12.254v-6.107H-599.789z M-612.043,276.295l12.254,12.254v25.524
					h-12.254V276.295z"/>
				<path fill="#30EDBF" d="M-543.117,293.431v20.549h-12.254v-3.284c-3.777,2.214-8.068,3.378-12.49,3.378
					c-6.609,0-12.822-2.573-17.496-7.246c-4.672-4.674-7.246-10.887-7.246-17.496c0-3.729,0.809-7.313,2.404-10.651l0.604-1.262
					l9.496,9.498l-0.076,0.494c-0.098,0.629-0.146,1.275-0.146,1.922c0,3.328,1.297,6.458,3.65,8.811
					c2.354,2.354,5.482,3.65,8.811,3.65c2.568,0,4.998-0.758,7.074-2.198l-4.496-6.163H-543.117z M-578.568,282.846l-8.785-8.783
					l0.588-0.696c4.715-5.578,11.605-8.778,18.904-8.778c5.049,0,9.904,1.51,14.043,4.368c5.164,3.564,8.754,8.883,10.109,14.976
					l0.268,1.205H-556.1l-0.256-0.608c-0.623-1.496-1.531-2.844-2.695-4.008c-2.352-2.354-5.48-3.65-8.811-3.65
					c-3.328,0-6.457,1.296-8.811,3.65c-0.438,0.438-0.846,0.911-1.213,1.405L-578.568,282.846z"/>
				<path fill="#30EDBF" d="M-523.688,264.589v18.361l-12.252-12.254v-6.107H-523.688z M-535.939,276.295l12.252,12.254v25.524
					h-12.252V276.295z"/>
				<path fill="#30EDBF" d="M-504.219,282.396l-12.281-12.282v-5.525h12.281V282.396z M-490.477,301.736l9.781,9.781l-1.344,0.576
					c-3.076,1.314-6.346,1.98-9.719,1.98c-5.035,0-9.881-1.503-14.012-4.347c-6.721-4.624-10.73-12.248-10.73-20.396v-13.62
					l12.281,12.281v1.339c0,3.328,1.297,6.458,3.65,8.811c2.354,2.354,5.482,3.65,8.811,3.65c0.281,0,0.563-0.009,0.834-0.027
					L-490.477,301.736z M-467.016,264.589v24.743c0,3.876-0.871,7.588-2.59,11.031c-1.637,3.284-4.035,6.217-6.936,8.481
					l-0.691,0.538l-8.871-8.871l1.037-0.663c0.76-0.485,1.473-1.059,2.119-1.706c2.354-2.354,3.65-5.482,3.65-8.811v-24.743
					H-467.016z"/>
				<path fill="#30EDBF" d="M-410.352,264.589v49.485h-12.254v-21.802l-12.49,12.504l-12.488-12.504v0.01l-12.254-12.253v-15.439
					h1.926l22.816,22.817l22.818-22.817H-410.352z M-459.838,285.627l12.254,12.253v16.193h-12.254V285.627z"/>
			</g>
		</g>
	</g>
	<text transform="matrix(1 0 0 1 -826.3223 349.6479)" fill="#FFFFFF" font-family="'Ailerons-Regular'" font-size="29.5798">SUPLEMENTOS DE QUALIDADE</text>
	<rect x="-321.031" y="-333.033" fill="#30EDBF" width="657.065" height="102.01"/>
	<g>
		<g opacity="0.75">
			<path fill="#008759" d="M60.269,23.373c0,3.283-1.068,6.369-3.09,8.928c-0.348,0.441-0.732,0.873-1.141,1.281
				c-2.729,2.729-6.354,4.23-10.211,4.23H30.464l-10.822-10.82V8.932h26.186c3.859,0,7.484,1.502,10.211,4.229
				c1.887,1.887,3.209,4.24,3.826,6.803C60.132,21.071,60.269,22.218,60.269,23.373z M19.642,32.589l12.254,12.254v13.338H19.642
				V32.589z M47.653,23.373c0-0.338-0.039-0.671-0.117-0.99c-0.18-0.744-0.564-1.428-1.113-1.977
				c-0.791-0.793-1.844-1.229-2.965-1.229H31.896v1.66l6.732,6.73h4.83c1.121,0,2.174-0.436,2.965-1.229
				c0.123-0.122,0.234-0.248,0.332-0.373l0.002-0.002C47.343,25.224,47.653,24.328,47.653,23.373z"/>
			<path fill="#008759" d="M117.954,58.181H98.972l-0.289-0.289l-18.98-18.92v0.037L67.45,26.755V8.697h33.066
				c0.963,0,1.926,0.095,2.861,0.282c2.781,0.557,5.322,1.921,7.348,3.947c1.887,1.888,3.209,4.239,3.828,6.802
				c0.268,1.106,0.402,2.254,0.402,3.408c0,0.512-0.027,1.022-0.078,1.521c-0.162,3.963-1.773,7.668-4.541,10.439
				c-2.791,2.795-6.512,4.385-10.475,4.479h-0.018l-0.18-0.006c-0.215,0.006-0.434,0.006-0.648,0.002L117.954,58.181z M67.45,32.353
				l12.252,12.256v13.572H67.45V32.353z M98.972,27.251c0.201-0.039,0.4-0.094,0.59-0.162c0.584-0.209,1.105-0.541,1.549-0.985
				c0.064-0.063,0.123-0.125,0.176-0.185c0.016-0.018,0.029-0.033,0.043-0.051l0.014-0.016c0.029-0.034,0.059-0.068,0.084-0.103
				l0.018-0.021c0.043-0.055,0.088-0.114,0.139-0.188c0.037-0.051,0.072-0.104,0.105-0.157c0.104-0.16,0.195-0.329,0.275-0.501
				c0.25-0.545,0.377-1.133,0.377-1.748c0-0.084-0.002-0.169-0.008-0.252c-0.004-0.084-0.012-0.168-0.021-0.25
				c-0.02-0.166-0.049-0.329-0.088-0.486c-0.055-0.23-0.131-0.458-0.229-0.68H80.571l5.863,5.864h11.711
				C98.425,27.333,98.702,27.305,98.972,27.251z"/>
			<path fill="#008759" d="M152.144,43.558l8.738,8.738l-0.887,0.688c-4.371,3.4-9.617,5.197-15.17,5.197
				c-6.611,0-12.824-2.572-17.496-7.246c-4.674-4.674-7.248-10.887-7.248-17.496c0-5.553,1.797-10.799,5.197-15.172l0.689-0.885
				l8.736,8.736l-0.424,0.67c-1.254,1.979-1.916,4.279-1.916,6.65c0,3.328,1.295,6.459,3.648,8.811
				c2.354,2.354,5.482,3.65,8.813,3.65c2.371,0,4.67-0.662,6.65-1.916L152.144,43.558z M169.567,33.439
				c0,5.553-1.797,10.799-5.197,15.172l-0.689,0.885l-8.736-8.736l0.424-0.67c1.254-1.979,1.916-4.279,1.916-6.65
				c0-3.328-1.295-6.457-3.648-8.811s-5.482-3.65-8.811-3.65c-2.373,0-4.672,0.663-6.652,1.918l-0.668,0.424l-8.738-8.737
				l0.885-0.688c4.373-3.4,9.619-5.197,15.174-5.197c6.609,0,12.822,2.573,17.496,7.246
				C166.993,20.617,169.567,26.83,169.567,33.439z"/>
			<path fill="#008759" d="M225.948,33.439c0,5.004-1.479,9.826-4.275,13.941c-0.043,0.063-0.09,0.131-0.137,0.199
				c-4.602,6.637-12.15,10.602-20.189,10.602h-24.602V28.322l12.287,12.285v5.227h12.314c0.271,0,0.543-0.008,0.807-0.025
				c3.75-0.244,7.139-2.17,9.299-5.285c0.027-0.035,0.047-0.066,0.066-0.096c1.402-2.063,2.143-4.479,2.143-6.988
				c0-2.529-0.752-4.961-2.174-7.035c-0.008-0.012-0.016-0.021-0.021-0.03l-0.01-0.014c-2.309-3.328-6.088-5.315-10.109-5.315
				h-12.314v13.965l-12.287-12.287V8.697h24.602c8.039,0,15.588,3.965,20.191,10.605c0.021,0.031,0.045,0.064,0.068,0.1
				C224.446,23.539,225.948,28.394,225.948,33.439z"/>
			<path fill="#008759" d="M245.374,8.697v18.361L233.12,14.804V8.697H245.374z M233.12,20.404l12.254,12.254v25.523H233.12V20.404z
				"/>
			<path fill="#008759" d="M302.046,37.539v20.549h-12.254v-3.283c-3.777,2.213-8.068,3.377-12.49,3.377
				c-6.609,0-12.822-2.572-17.496-7.246c-4.672-4.674-7.246-10.887-7.246-17.496c0-3.729,0.809-7.313,2.404-10.65l0.604-1.263
				l9.496,9.497l-0.076,0.494c-0.098,0.629-0.146,1.275-0.146,1.922c0,3.328,1.297,6.459,3.65,8.811
				c2.354,2.354,5.482,3.65,8.811,3.65c2.568,0,4.998-0.758,7.074-2.197l-4.496-6.164H302.046z M266.595,26.954l-8.785-8.783
				l0.588-0.696c4.715-5.578,11.605-8.777,18.904-8.777c5.049,0,9.904,1.51,14.043,4.367c5.164,3.564,8.754,8.884,10.109,14.977
				l0.268,1.205h-12.658l-0.256-0.609c-0.623-1.495-1.531-2.844-2.695-4.008c-2.352-2.354-5.48-3.65-8.811-3.65
				c-3.328,0-6.457,1.297-8.811,3.65c-0.438,0.438-0.846,0.911-1.213,1.405L266.595,26.954z"/>
			<path fill="#008759" d="M321.476,8.697v18.361l-12.252-12.254V8.697H321.476z M309.224,20.404l12.252,12.254v25.523h-12.252
				V20.404z"/>
			<path fill="#008759" d="M340.944,26.503l-12.281-12.281V8.697h12.281V26.503z M354.687,45.843l9.781,9.781l-1.344,0.576
				c-3.076,1.314-6.346,1.98-9.719,1.98c-5.035,0-9.881-1.502-14.012-4.346c-6.721-4.625-10.73-12.248-10.73-20.396V19.82
				l12.281,12.281v1.338c0,3.328,1.297,6.459,3.65,8.811c2.354,2.354,5.482,3.65,8.811,3.65c0.281,0,0.563-0.008,0.834-0.027
				L354.687,45.843z M378.147,8.697v24.742c0,3.877-0.871,7.588-2.59,11.031c-1.637,3.285-4.035,6.217-6.936,8.482l-0.691,0.537
				l-8.871-8.871l1.037-0.662c0.76-0.486,1.473-1.059,2.119-1.707c2.354-2.354,3.65-5.482,3.65-8.811V8.697H378.147z"/>
			<path fill="#008759" d="M434.812,8.697v49.484h-12.254V36.38l-12.49,12.504L397.579,36.38v0.01l-12.254-12.254V8.697h1.926
				l22.816,22.816l22.818-22.816H434.812z M385.325,29.736l12.254,12.252v16.193h-12.254V29.736z"/>
		</g>
		<g>
			<g>
				<path fill="#30EDBF" d="M58.269,21.373c0,3.283-1.068,6.369-3.09,8.928c-0.348,0.441-0.732,0.873-1.141,1.281
					c-2.729,2.729-6.354,4.23-10.211,4.23H28.464l-10.822-10.82V6.932h26.186c3.859,0,7.484,1.502,10.211,4.229
					c1.887,1.887,3.209,4.24,3.826,6.803C58.132,19.071,58.269,20.218,58.269,21.373z M17.642,30.589l12.254,12.254v13.338H17.642
					V30.589z M45.653,21.373c0-0.338-0.039-0.671-0.117-0.99c-0.18-0.744-0.564-1.428-1.113-1.977
					c-0.791-0.793-1.844-1.229-2.965-1.229H29.896v1.66l6.732,6.73h4.83c1.121,0,2.174-0.436,2.965-1.229
					c0.123-0.122,0.234-0.248,0.332-0.373l0.002-0.002C45.343,23.224,45.653,22.328,45.653,21.373z"/>
				<path fill="#30EDBF" d="M115.954,56.181H96.972l-0.289-0.289l-18.98-18.92v0.037L65.45,24.755V6.697h33.066
					c0.963,0,1.926,0.095,2.861,0.282c2.781,0.557,5.322,1.921,7.348,3.947c1.887,1.888,3.209,4.239,3.828,6.802
					c0.268,1.106,0.402,2.254,0.402,3.408c0,0.512-0.027,1.022-0.078,1.521c-0.162,3.963-1.773,7.668-4.541,10.439
					c-2.791,2.795-6.512,4.385-10.475,4.479h-0.018l-0.18-0.006c-0.215,0.006-0.434,0.006-0.648,0.002L115.954,56.181z
					 M65.45,30.353l12.252,12.256v13.572H65.45V30.353z M96.972,25.251c0.201-0.039,0.4-0.094,0.59-0.162
					c0.584-0.209,1.105-0.541,1.549-0.985c0.064-0.063,0.123-0.125,0.176-0.185c0.016-0.018,0.029-0.033,0.043-0.051l0.014-0.016
					c0.029-0.034,0.059-0.068,0.084-0.103l0.018-0.021c0.043-0.055,0.088-0.114,0.139-0.188c0.037-0.051,0.072-0.104,0.105-0.157
					c0.104-0.16,0.195-0.329,0.275-0.501c0.25-0.545,0.377-1.133,0.377-1.748c0-0.084-0.002-0.169-0.008-0.252
					c-0.004-0.084-0.012-0.168-0.021-0.25c-0.02-0.166-0.049-0.329-0.088-0.486c-0.055-0.23-0.131-0.458-0.229-0.68H78.571
					l5.863,5.864h11.711C96.425,25.333,96.702,25.305,96.972,25.251z"/>
				<path fill="#30EDBF" d="M150.144,41.558l8.738,8.738l-0.887,0.688c-4.371,3.4-9.617,5.197-15.17,5.197
					c-6.611,0-12.824-2.572-17.496-7.246c-4.674-4.674-7.248-10.887-7.248-17.496c0-5.553,1.797-10.799,5.197-15.172l0.689-0.885
					l8.736,8.736l-0.424,0.67c-1.254,1.979-1.916,4.279-1.916,6.65c0,3.328,1.295,6.459,3.648,8.811
					c2.354,2.354,5.482,3.65,8.813,3.65c2.371,0,4.67-0.662,6.65-1.916L150.144,41.558z M167.567,31.439
					c0,5.553-1.797,10.799-5.197,15.172l-0.689,0.885l-8.736-8.736l0.424-0.67c1.254-1.979,1.916-4.279,1.916-6.65
					c0-3.328-1.295-6.457-3.648-8.811s-5.482-3.65-8.811-3.65c-2.373,0-4.672,0.663-6.652,1.918l-0.668,0.424l-8.738-8.737
					l0.885-0.688c4.373-3.4,9.619-5.197,15.174-5.197c6.609,0,12.822,2.573,17.496,7.246
					C164.993,18.617,167.567,24.83,167.567,31.439z"/>
				<path fill="#30EDBF" d="M223.948,31.439c0,5.004-1.479,9.826-4.275,13.941c-0.043,0.063-0.09,0.131-0.137,0.199
					c-4.602,6.637-12.15,10.602-20.189,10.602h-24.602V26.322l12.287,12.285v5.227h12.314c0.271,0,0.543-0.008,0.807-0.025
					c3.75-0.244,7.139-2.17,9.299-5.285c0.027-0.035,0.047-0.066,0.066-0.096c1.402-2.063,2.143-4.479,2.143-6.988
					c0-2.529-0.752-4.961-2.174-7.035c-0.008-0.012-0.016-0.021-0.021-0.03l-0.01-0.014c-2.309-3.328-6.088-5.315-10.109-5.315
					h-12.314v13.965l-12.287-12.287V6.697h24.602c8.039,0,15.588,3.965,20.191,10.605c0.021,0.031,0.045,0.064,0.068,0.1
					C222.446,21.539,223.948,26.394,223.948,31.439z"/>
				<path fill="#30EDBF" d="M243.374,6.697v18.361L231.12,12.804V6.697H243.374z M231.12,18.404l12.254,12.254v25.523H231.12V18.404
					z"/>
				<path fill="#30EDBF" d="M300.046,35.539v20.549h-12.254v-3.283c-3.777,2.213-8.068,3.377-12.49,3.377
					c-6.609,0-12.822-2.572-17.496-7.246c-4.672-4.674-7.246-10.887-7.246-17.496c0-3.729,0.809-7.313,2.404-10.65l0.604-1.263
					l9.496,9.497l-0.076,0.494c-0.098,0.629-0.146,1.275-0.146,1.922c0,3.328,1.297,6.459,3.65,8.811
					c2.354,2.354,5.482,3.65,8.811,3.65c2.568,0,4.998-0.758,7.074-2.197l-4.496-6.164H300.046z M264.595,24.954l-8.785-8.783
					l0.588-0.696c4.715-5.578,11.605-8.777,18.904-8.777c5.049,0,9.904,1.51,14.043,4.367c5.164,3.564,8.754,8.884,10.109,14.977
					l0.268,1.205h-12.658l-0.256-0.609c-0.623-1.495-1.531-2.844-2.695-4.008c-2.352-2.354-5.48-3.65-8.811-3.65
					c-3.328,0-6.457,1.297-8.811,3.65c-0.438,0.438-0.846,0.911-1.213,1.405L264.595,24.954z"/>
				<path fill="#30EDBF" d="M319.476,6.697v18.361l-12.252-12.254V6.697H319.476z M307.224,18.404l12.252,12.254v25.523h-12.252
					V18.404z"/>
				<path fill="#30EDBF" d="M338.944,24.503l-12.281-12.281V6.697h12.281V24.503z M352.687,43.843l9.781,9.781l-1.344,0.576
					c-3.076,1.314-6.346,1.98-9.719,1.98c-5.035,0-9.881-1.502-14.012-4.346c-6.721-4.625-10.73-12.248-10.73-20.396V17.82
					l12.281,12.281v1.338c0,3.328,1.297,6.459,3.65,8.811c2.354,2.354,5.482,3.65,8.811,3.65c0.281,0,0.563-0.008,0.834-0.027
					L352.687,43.843z M376.147,6.697v24.742c0,3.877-0.871,7.588-2.59,11.031c-1.637,3.285-4.035,6.217-6.936,8.482l-0.691,0.537
					l-8.871-8.871l1.037-0.662c0.76-0.486,1.473-1.059,2.119-1.707c2.354-2.354,3.65-5.482,3.65-8.811V6.697H376.147z"/>
				<path fill="#30EDBF" d="M432.812,6.697v49.484h-12.254V34.38l-12.49,12.504L395.579,34.38v0.01l-12.254-12.254V6.697h1.926
					l22.816,22.816l22.818-22.816H432.812z M383.325,27.736l12.254,12.252v16.193h-12.254V27.736z"/>
			</g>
		</g>
	</g>
</g>
<polygon opacity="0.8" fill="#92FCFF" points="-999.729,37.219 -993.388,5.527 -1040.177,52.606 "/>
<polygon fill="#444242" points="-118.157,381.059 -399.622,663.012 -385.73,722.032 -122.606,458.457 "/>
<linearGradient id="SVGID_4_" gradientUnits="userSpaceOnUse" x1="251.6504" y1="1084.2681" x2="542.7207" y2="1084.2681" gradientTransform="matrix(-9.000000e-004 -1 -1 9.000000e-004 812.8029 929.2482)">
	<stop  offset="0.064" style="stop-color:#00EAAD"/>
	<stop  offset="0.9163" style="stop-color:#059B73"/>
</linearGradient>
<polygon fill="url(#SVGID_4_)" points="-142.072,387.385 -401.601,647.362 -370.245,678.661 -146.688,454.718 "/>
<polygon opacity="0.9" fill="#30EFC1" points="-253.246,507.17 -419.829,674.04 -360.937,676.301 -176.59,493.09 "/>
<path fill="#444242" d="M-176.56,369.938c-0.227-0.228-0.594-0.227-0.819,0.001l-177.756,178.063
	c-0.229,0.228-0.229,0.595,0.001,0.82l0,0c0.224,0.227,0.594,0.227,0.817-0.001l177.757-178.063
	C-176.333,370.53-176.332,370.165-176.56,369.938L-176.56,369.938z"/>
<g>
	<polygon opacity="0.8" fill="#92FCFF" points="-303.097,575.032 -432.515,704.672 -489.429,720.974 -343.772,575.065 	"/>
	<polygon opacity="0.8" fill="#92FCFF" points="-292.778,564.697 -333.454,564.731 -203.132,434.183 -155.707,427.391 	"/>
</g>
<path fill="#5DF9D0" d="M-136.854,311.246c-0.227-0.226-0.594-0.226-0.819,0.001l-177.759,178.062c-0.225,0.228-0.226,0.595,0,0.822
	l0,0c0.228,0.225,0.594,0.224,0.822-0.002l177.757-178.063C-136.627,311.838-136.628,311.472-136.854,311.246L-136.854,311.246z"/>
<path fill="#EDEEF0" d="M-140.524,309.022c-0.227-0.228-0.594-0.226-0.82,0.001l-177.758,178.063
	c-0.226,0.23-0.226,0.596,0.001,0.819l0,0c0.228,0.229,0.595,0.227,0.821,0l177.757-178.063
	C-140.298,309.616-140.297,309.249-140.524,309.022L-140.524,309.022z"/>
<rect x="-285.85" y="476.868" transform="matrix(-8.240182e-004 -1 1 -8.240182e-004 -759.3955 194.9663)" fill="#282828" width="7.11" height="0"/>
<g>
	<polygon fill="#1E6477" points="-271.284,479.275 -213.24,421.13 -208.6,425.763 -271.276,488.547 	"/>
	<polygon fill="#1E6477" points="-281.592,498.881 -479.119,696.747 -489.448,697.813 -281.6,489.608 	"/>
</g>
<polygon opacity="0.8" fill="#92FCFF" points="-216.623,576.514 -184.937,570.144 -231.974,616.974 "/>
<text transform="matrix(1 0 0 1 -1294.0635 581.5835)" fill="#FFFFFF" font-family="'North-Regular'" font-size="17.4147">wagner paulo</text>
<text transform="matrix(1 0 0 1 -1294.0635 608.2505)" fill="#FFFFFF" font-family="'North-Regular'" font-size="17.4147">wagner paulo</text>
<line fill="none" x1="-1040.087" y1="11.211" x2="-1040.177" y2="264.589"/>
<g>
	<g>
		<g opacity="0.75">
			<path fill="#008759" d="M-824.072-158.167c0,3.551-1.157,6.889-3.341,9.654c-0.377,0.48-0.792,0.943-1.233,1.389
				c-2.952,2.949-6.875,4.578-11.045,4.578h-16.62l-11.707-11.711v-19.531h28.327c4.173,0,8.093,1.623,11.045,4.575
				c2.04,2.042,3.471,4.583,4.139,7.356C-824.219-160.66-824.072-159.419-824.072-158.167z M-868.019-148.197l13.254,13.252v14.43
				h-13.254V-148.197z M-837.719-158.167c0-0.367-0.041-0.727-0.125-1.072c-0.193-0.805-0.611-1.543-1.205-2.139
				c-0.857-0.857-1.995-1.326-3.21-1.326h-12.506v1.793l7.282,7.283h5.224c1.215,0,2.353-0.473,3.21-1.332
				c0.133-0.131,0.255-0.268,0.359-0.404l0.002-0.002C-838.055-156.166-837.719-157.136-837.719-158.167z"/>
			<path fill="#008759" d="M-761.673-120.515h-20.531l-0.315-0.314l-20.53-20.465v0.039l-13.254-13.252v-19.535h35.769
				c1.043,0,2.085,0.1,3.096,0.301c3.008,0.605,5.756,2.082,7.948,4.271c2.041,2.042,3.471,4.586,4.143,7.357
				c0.287,1.199,0.435,2.439,0.435,3.688c0,0.555-0.028,1.107-0.085,1.648c-0.176,4.281-1.918,8.295-4.913,11.291
				c-3.018,3.025-7.042,4.744-11.333,4.844h-0.017l-0.193-0.008c-0.232,0.008-0.468,0.01-0.703,0L-761.673-120.515z
				 M-816.304-148.455l13.254,13.256v14.684h-13.254V-148.455z M-782.204-153.972c0.218-0.045,0.432-0.1,0.635-0.174
				c0.633-0.227,1.196-0.59,1.68-1.068c0.067-0.066,0.13-0.135,0.188-0.199c0.016-0.02,0.032-0.037,0.047-0.057l0.015-0.018
				c0.034-0.037,0.062-0.072,0.091-0.111l0.022-0.02c0.045-0.063,0.091-0.121,0.146-0.203c0.043-0.057,0.079-0.111,0.114-0.17
				c0.112-0.174,0.211-0.355,0.298-0.545c0.271-0.588,0.411-1.223,0.411-1.889c0-0.09-0.006-0.184-0.011-0.271
				c-0.003-0.09-0.012-0.182-0.02-0.27c-0.023-0.18-0.057-0.357-0.098-0.527c-0.062-0.248-0.144-0.496-0.247-0.734h-23.175
				l6.34,6.344h12.669C-782.8-153.884-782.496-153.916-782.204-153.972z"/>
			<path fill="#008759" d="M-724.689-136.333l9.456,9.453l-0.961,0.744c-4.728,3.678-10.404,5.621-16.411,5.621
				c-7.15,0-13.869-2.783-18.927-7.84c-5.054-5.053-7.84-11.773-7.84-18.924c0-6.008,1.944-11.682,5.624-16.413l0.746-0.958
				l9.449,9.449l-0.455,0.729c-1.36,2.139-2.075,4.627-2.075,7.193c0,3.602,1.4,6.986,3.949,9.531
				c2.542,2.545,5.93,3.945,9.528,3.945c2.566,0,5.053-0.713,7.194-2.072L-724.689-136.333z M-705.842-147.279
				c0,6.006-1.942,11.68-5.623,16.41l-0.743,0.957l-9.45-9.449l0.457-0.727c1.359-2.139,2.075-4.627,2.075-7.191
				c0-3.602-1.399-6.986-3.946-9.529c-2.544-2.545-5.934-3.953-9.533-3.953c-2.564,0-5.054,0.719-7.193,2.078l-0.723,0.459
				l-9.453-9.453l0.955-0.744c4.732-3.679,10.407-5.621,16.414-5.621c7.15,0,13.87,2.779,18.927,7.838
				C-708.624-161.148-705.842-154.431-705.842-147.279z"/>
			<path fill="#008759" d="M-644.851-147.279c0,5.414-1.601,10.629-4.626,15.08c-0.044,0.066-0.097,0.141-0.144,0.211
				c-4.982,7.184-13.146,11.473-21.843,11.473h-26.612v-32.297l13.291,13.285v5.652h13.321c0.294,0,0.588-0.004,0.875-0.023
				c4.057-0.266,7.721-2.352,10.058-5.719c0.03-0.041,0.05-0.074,0.072-0.104c1.513-2.232,2.316-4.848,2.316-7.559
				c0-2.736-0.812-5.365-2.351-7.609c-0.008-0.016-0.019-0.023-0.026-0.035l-0.01-0.016c-2.496-3.598-6.583-5.744-10.935-5.744
				h-13.321v15.104l-13.291-13.291v-15.172h26.612c8.696,0,16.86,4.287,21.843,11.471c0.025,0.033,0.047,0.07,0.074,0.107
				C-646.475-157.99-644.851-152.738-644.851-147.279z"/>
			<path fill="#008759" d="M-623.837-174.042v19.859l-13.254-13.252v-6.607H-623.837z M-637.091-161.38l13.254,13.256v27.609
				h-13.254V-161.38z"/>
			<path fill="#008759" d="M-562.533-142.843v22.229h-13.254v-3.553c-4.086,2.391-8.727,3.652-13.515,3.652
				c-7.148,0-13.868-2.783-18.924-7.84c-5.054-5.053-7.837-11.773-7.837-18.924c0-4.035,0.871-7.91,2.599-11.521l0.653-1.365
				l10.274,10.273l-0.085,0.533c-0.103,0.678-0.157,1.381-0.157,2.08c0,3.602,1.403,6.986,3.948,9.531
				c2.546,2.545,5.932,3.945,9.528,3.945c2.779,0,5.409-0.814,7.656-2.375l-4.866-6.666H-562.533z M-600.881-154.298l-9.502-9.5
				l0.636-0.752c5.098-6.031,12.553-9.492,20.445-9.492c5.464,0,10.715,1.63,15.191,4.724c5.588,3.854,9.472,9.61,10.938,16.198
				l0.29,1.305h-13.693l-0.278-0.66c-0.674-1.619-1.652-3.074-2.915-4.332c-2.543-2.545-5.927-3.953-9.532-3.953
				c-3.597,0-6.982,1.408-9.528,3.953c-0.472,0.475-0.914,0.982-1.311,1.516L-600.881-154.298z"/>
			<path fill="#008759" d="M-541.514-174.042v19.859l-13.254-13.252v-6.607H-541.514z M-554.768-161.38l13.254,13.256v27.609
				h-13.254V-161.38z"/>
			<path fill="#008759" d="M-520.455-154.781l-13.284-13.287v-5.975h13.284V-154.781z M-505.591-133.861l10.58,10.582l-1.451,0.621
				c-3.326,1.42-6.864,2.143-10.515,2.143c-5.446,0-10.686-1.625-15.158-4.701c-7.271-5.002-11.604-13.252-11.604-22.063v-14.734
				l13.284,13.283v1.451c0,3.602,1.404,6.986,3.95,9.531s5.929,3.945,9.528,3.945c0.306,0,0.609-0.006,0.901-0.029L-505.591-133.861
				z M-480.212-174.042v26.764c0,4.193-0.942,8.209-2.802,11.934c-1.769,3.551-4.366,6.723-7.501,9.174l-0.747,0.578l-9.598-9.592
				l1.121-0.717c0.82-0.525,1.592-1.145,2.292-1.846c2.55-2.549,3.952-5.93,3.952-9.531v-26.764H-480.212z"/>
			<path fill="#008759" d="M-418.917-174.042v53.527h-13.256v-23.584l-13.51,13.525l-13.511-13.525v0.012l-13.254-13.254v-16.701
				h2.084l24.681,24.68l24.684-24.68H-418.917z M-472.447-151.287l13.254,13.258v17.514h-13.254V-151.287z"/>
		</g>
		<g>
			<g>
				<path fill="#30EDBF" d="M-826.072-160.167c0,3.551-1.157,6.889-3.341,9.654c-0.377,0.48-0.792,0.943-1.233,1.389
					c-2.952,2.949-6.875,4.578-11.045,4.578h-16.62l-11.707-11.711v-19.531h28.327c4.173,0,8.093,1.623,11.045,4.575
					c2.04,2.042,3.471,4.583,4.139,7.356C-826.219-162.66-826.072-161.419-826.072-160.167z M-870.019-150.197l13.254,13.252v14.43
					h-13.254V-150.197z M-839.719-160.167c0-0.367-0.041-0.727-0.125-1.072c-0.193-0.805-0.611-1.543-1.205-2.139
					c-0.857-0.857-1.995-1.326-3.21-1.326h-12.506v1.793l7.282,7.283h5.224c1.215,0,2.353-0.473,3.21-1.332
					c0.133-0.131,0.255-0.268,0.359-0.404l0.002-0.002C-840.055-158.166-839.719-159.136-839.719-160.167z"/>
				<path fill="#30EDBF" d="M-763.673-122.515h-20.531l-0.315-0.314l-20.53-20.465v0.039l-13.254-13.252v-19.535h35.769
					c1.043,0,2.085,0.1,3.096,0.301c3.008,0.605,5.756,2.082,7.948,4.271c2.041,2.042,3.471,4.586,4.143,7.357
					c0.287,1.199,0.435,2.439,0.435,3.688c0,0.555-0.028,1.107-0.085,1.648c-0.176,4.281-1.918,8.295-4.913,11.291
					c-3.018,3.025-7.042,4.744-11.333,4.844h-0.017l-0.193-0.008c-0.232,0.008-0.468,0.01-0.703,0L-763.673-122.515z
					 M-818.304-150.455l13.254,13.256v14.684h-13.254V-150.455z M-784.204-155.972c0.218-0.045,0.432-0.1,0.635-0.174
					c0.633-0.227,1.196-0.59,1.68-1.068c0.067-0.066,0.13-0.135,0.188-0.199c0.016-0.02,0.032-0.037,0.047-0.057l0.015-0.018
					c0.034-0.037,0.062-0.072,0.091-0.111l0.022-0.02c0.045-0.063,0.091-0.121,0.146-0.203c0.043-0.057,0.079-0.111,0.114-0.17
					c0.112-0.174,0.211-0.355,0.298-0.545c0.271-0.588,0.411-1.223,0.411-1.889c0-0.09-0.006-0.184-0.011-0.271
					c-0.003-0.09-0.012-0.182-0.02-0.27c-0.023-0.18-0.057-0.357-0.098-0.527c-0.062-0.248-0.144-0.496-0.247-0.734h-23.175
					l6.34,6.344h12.669C-784.8-155.884-784.496-155.916-784.204-155.972z"/>
				<path fill="#30EDBF" d="M-726.689-138.333l9.456,9.453l-0.961,0.744c-4.728,3.678-10.404,5.621-16.411,5.621
					c-7.15,0-13.869-2.783-18.927-7.84c-5.054-5.053-7.84-11.773-7.84-18.924c0-6.008,1.944-11.682,5.624-16.413l0.746-0.958
					l9.449,9.449l-0.455,0.729c-1.36,2.139-2.075,4.627-2.075,7.193c0,3.602,1.4,6.986,3.949,9.531
					c2.542,2.545,5.93,3.945,9.528,3.945c2.566,0,5.053-0.713,7.194-2.072L-726.689-138.333z M-707.842-149.279
					c0,6.006-1.942,11.68-5.623,16.41l-0.743,0.957l-9.45-9.449l0.457-0.727c1.359-2.139,2.075-4.627,2.075-7.191
					c0-3.602-1.399-6.986-3.946-9.529c-2.544-2.545-5.934-3.953-9.533-3.953c-2.564,0-5.054,0.719-7.193,2.078l-0.723,0.459
					l-9.453-9.453l0.955-0.744c4.732-3.679,10.407-5.621,16.414-5.621c7.15,0,13.87,2.779,18.927,7.838
					C-710.624-163.148-707.842-156.431-707.842-149.279z"/>
				<path fill="#30EDBF" d="M-646.851-149.279c0,5.414-1.601,10.629-4.626,15.08c-0.044,0.066-0.097,0.141-0.144,0.211
					c-4.982,7.184-13.146,11.473-21.843,11.473h-26.612v-32.297l13.291,13.285v5.652h13.321c0.294,0,0.588-0.004,0.875-0.023
					c4.057-0.266,7.721-2.352,10.058-5.719c0.03-0.041,0.05-0.074,0.072-0.104c1.513-2.232,2.316-4.848,2.316-7.559
					c0-2.736-0.812-5.365-2.351-7.609c-0.008-0.016-0.019-0.023-0.026-0.035l-0.01-0.016c-2.496-3.598-6.583-5.744-10.935-5.744
					h-13.321v15.104l-13.291-13.291v-15.172h26.612c8.696,0,16.86,4.287,21.843,11.471c0.025,0.033,0.047,0.07,0.074,0.107
					C-648.475-159.99-646.851-154.738-646.851-149.279z"/>
				<path fill="#30EDBF" d="M-625.837-176.042v19.859l-13.254-13.252v-6.607H-625.837z M-639.091-163.38l13.254,13.256v27.609
					h-13.254V-163.38z"/>
				<path fill="#30EDBF" d="M-564.533-144.843v22.229h-13.254v-3.553c-4.086,2.391-8.727,3.652-13.515,3.652
					c-7.148,0-13.868-2.783-18.924-7.84c-5.054-5.053-7.837-11.773-7.837-18.924c0-4.035,0.871-7.91,2.599-11.521l0.653-1.365
					l10.274,10.273l-0.085,0.533c-0.103,0.678-0.157,1.381-0.157,2.08c0,3.602,1.403,6.986,3.948,9.531
					c2.546,2.545,5.932,3.945,9.528,3.945c2.779,0,5.409-0.814,7.656-2.375l-4.866-6.666H-564.533z M-602.881-156.298l-9.502-9.5
					l0.636-0.752c5.098-6.031,12.553-9.492,20.445-9.492c5.464,0,10.715,1.63,15.191,4.724c5.588,3.854,9.472,9.61,10.938,16.198
					l0.29,1.305h-13.693l-0.278-0.66c-0.674-1.619-1.652-3.074-2.915-4.332c-2.543-2.545-5.927-3.953-9.532-3.953
					c-3.597,0-6.982,1.408-9.528,3.953c-0.472,0.475-0.914,0.982-1.311,1.516L-602.881-156.298z"/>
				<path fill="#30EDBF" d="M-543.514-176.042v19.859l-13.254-13.252v-6.607H-543.514z M-556.768-163.38l13.254,13.256v27.609
					h-13.254V-163.38z"/>
				<path fill="#30EDBF" d="M-522.455-156.781l-13.284-13.287v-5.975h13.284V-156.781z M-507.591-135.861l10.58,10.582l-1.451,0.621
					c-3.326,1.42-6.864,2.143-10.515,2.143c-5.446,0-10.686-1.625-15.158-4.701c-7.271-5.002-11.604-13.252-11.604-22.063v-14.734
					l13.284,13.283v1.451c0,3.602,1.404,6.986,3.95,9.531s5.929,3.945,9.528,3.945c0.306,0,0.609-0.006,0.901-0.029
					L-507.591-135.861z M-482.212-176.042v26.764c0,4.193-0.942,8.209-2.802,11.934c-1.769,3.551-4.366,6.723-7.501,9.174
					l-0.747,0.578l-9.598-9.592l1.121-0.717c0.82-0.525,1.592-1.145,2.292-1.846c2.55-2.549,3.952-5.93,3.952-9.531v-26.764
					H-482.212z"/>
				<path fill="#30EDBF" d="M-420.917-176.042v53.527h-13.256v-23.584l-13.51,13.525l-13.511-13.525v0.012l-13.254-13.254v-16.701
					h2.084l24.681,24.68l24.684-24.68H-420.917z M-474.447-153.287l13.254,13.258v17.514h-13.254V-153.287z"/>
			</g>
		</g>
	</g>
	<g>
		<path fill="#FFFFFF" d="M-860.074-100.796v-2.592c0-0.703-0.544-1.248-1.216-1.248c-0.672,0-1.216,0.545-1.216,1.248v2.145
			c0,1.311,0.992,3.008,0.992,3.008l2.751,5.184c1.12,2.047,1.024,3.551,1.024,3.551v2.848c0,1.568-1.28,2.848-2.879,2.848h-1.44
			c-1.536-0.063-2.752-1.311-2.784-2.848v-2.303c0-0.736,0.352-1.088,0.64-1.248c0.192-0.064,1.12-0.48,1.696-0.736v3.904
			c0,0.672,0.544,1.215,1.216,1.215c0.672,0,1.216-0.543,1.216-1.248v-2.559c0-1.313-0.992-3.041-0.992-3.041l-2.752-5.15
			c-1.12-2.049-1.024-3.553-1.024-3.553v-2.303c0-1.568,1.28-2.977,2.88-2.977h1.44c1.536,0.031,2.784,1.439,2.784,2.977v0.863
			c0,0.736-0.352,1.088-0.64,1.248C-858.57-101.468-859.466-101.052-860.074-100.796z"/>
		<path fill="#FFFFFF" d="M-838.412-86.654c0,1.537-1.248,2.689-2.751,2.721v0.031h-1.76c-1.568,0-2.848-1.184-2.848-2.752v-19.135
			c0.032-0.352,0.32-0.639,0.672-0.639h1.632v19.357c0,0.672,0.512,1.217,1.184,1.217h0.352c0.672,0,1.216-0.545,1.216-1.217
			v-19.357h2.304V-86.654z"/>
		<path fill="#FFFFFF" d="M-821.806-106.427c1.536,0,2.912,1.248,2.912,2.814v5.793c0,2.176-1.056,3.744-3.264,3.744h-1.376v10.047
			h-1.632c-0.544,0-0.64-0.32-0.64-0.48v-21.918H-821.806z M-821.102-103.197c-0.064-0.607-0.576-1.088-1.216-1.088h-1.216v8.064
			h1.216c0.64,0,1.152-0.48,1.216-1.088V-103.197z"/>
		<path fill="#FFFFFF" d="M-799.056-86.3c-0.256,0.574-0.64,1.471-0.736,1.662c-0.16,0.289-0.512,0.609-1.248,0.609h-5.503v-22.398
			h1.6c0.384,0.031,0.704,0.32,0.704,0.703V-86.3H-799.056z"/>
		<path fill="#FFFFFF" d="M-781.585-86.3c-0.256,0.574-0.64,1.471-0.736,1.662c-0.16,0.289-0.512,0.609-1.248,0.609h-5.12v-21.76
			c0.032-0.352,0.32-0.639,0.704-0.639h5.983l-0.768,1.664c-0.128,0.287-0.48,0.639-1.216,0.639h-1.855
			c-0.32,0-0.544,0.225-0.544,0.545v6.654h3.456c-0.256,0.576-0.64,1.504-0.736,1.697c-0.16,0.287-0.48,0.607-1.216,0.607h-0.96
			c-0.288,0-0.544,0.256-0.544,0.545v7.775H-781.585z"/>
		<path fill="#FFFFFF" d="M-761.556-84.029h-2.272V-95.58l-1.728,7.678h-0.704c-1.344,0-1.6-1.344-1.728-1.822l-1.344-5.855v11.551
			h-2.272v-22.398h1.408c0.896,0,1.024,0.832,1.024,0.832l2.656,12.863l2.528-12.896c0.032-0.096,0.192-0.799,1.024-0.799h1.408
			V-84.029z"/>
		<path fill="#FFFFFF" d="M-742.549-86.3c-0.256,0.574-0.64,1.471-0.736,1.662c-0.16,0.289-0.512,0.609-1.248,0.609h-5.12v-21.76
			c0.032-0.352,0.32-0.639,0.704-0.639h5.983l-0.768,1.664c-0.128,0.287-0.48,0.639-1.216,0.639h-1.855
			c-0.32,0-0.544,0.225-0.544,0.545v6.654h3.456c-0.256,0.576-0.64,1.504-0.736,1.697c-0.16,0.287-0.48,0.607-1.216,0.607h-0.96
			c-0.288,0-0.544,0.256-0.544,0.545v7.775H-742.549z"/>
		<path fill="#FFFFFF" d="M-724.183-84.029h-1.056c-1.248,0-1.44-0.992-1.536-1.439l-2.463-11.072v12.512h-2.304v-22.398h1.056
			c1.28,0,1.504,0.607,1.632,1.248l2.368,11.646v-12.895h2.304V-84.029z"/>
		<path fill="#FFFFFF" d="M-704.92-104.763c-0.128,0.287-0.48,0.607-1.216,0.607h-1.792c-0.32,0-0.544,0.256-0.576,0.543v19.584
			h-1.632c-0.544,0-0.64-0.32-0.64-0.48v-19.646h-3.231v-1.568c0-0.383,0.32-0.703,0.704-0.703h9.151L-704.92-104.763z"/>
		<path fill="#FFFFFF" d="M-690.139-106.652c1.536,0.064,2.784,1.313,2.784,2.848v17.184c-0.032,1.535-1.248,2.752-2.784,2.814
			h-1.759c-1.568,0-2.849-1.279-2.88-2.814v-17.184c0-1.568,1.279-2.848,2.88-2.848H-690.139z M-690.906-85.822
			c0.672,0,1.216-0.543,1.216-1.248v-16.318c0-0.703-0.544-1.248-1.216-1.248h-0.352c-0.672,0.033-1.216,0.576-1.216,1.248v16.318
			c0,0.672,0.544,1.217,1.216,1.248H-690.906z"/>
		<path fill="#FFFFFF" d="M-670.652-100.796v-2.592c0-0.703-0.544-1.248-1.216-1.248s-1.216,0.545-1.216,1.248v2.145
			c0,1.311,0.991,3.008,0.991,3.008l2.752,5.184c1.12,2.047,1.024,3.551,1.024,3.551v2.848c0,1.568-1.28,2.848-2.88,2.848h-1.44
			c-1.535-0.063-2.752-1.311-2.783-2.848v-2.303c0-0.736,0.352-1.088,0.64-1.248c0.192-0.064,1.12-0.48,1.696-0.736v3.904
			c0,0.672,0.544,1.215,1.216,1.215s1.216-0.543,1.216-1.248v-2.559c0-1.313-0.992-3.041-0.992-3.041l-2.752-5.15
			c-1.12-2.049-1.023-3.553-1.023-3.553v-2.303c0-1.568,1.279-2.977,2.88-2.977h1.439c1.536,0.031,2.784,1.439,2.784,2.977v0.863
			c0,0.736-0.353,1.088-0.641,1.248C-669.148-101.468-670.045-101.052-670.652-100.796z"/>
		<path fill="#FFFFFF" d="M-632.672-106.427c1.567,0,2.815,1.248,2.848,2.814v16.768c-0.032,1.568-1.28,2.816-2.848,2.816h-4.448
			v-22.398H-632.672z M-632.096-102.972c0-0.832-0.576-1.152-1.216-1.152h-1.504V-86.3h1.504c0.64,0,1.216-0.32,1.216-1.186
			V-102.972z"/>
		<path fill="#FFFFFF" d="M-609.762-86.3c-0.256,0.574-0.641,1.471-0.736,1.662c-0.16,0.289-0.512,0.609-1.248,0.609h-5.119v-21.76
			c0.031-0.352,0.319-0.639,0.704-0.639h5.983l-0.769,1.664c-0.128,0.287-0.479,0.639-1.216,0.639h-1.855
			c-0.32,0-0.544,0.225-0.544,0.545v6.654h3.455c-0.256,0.576-0.64,1.504-0.735,1.697c-0.16,0.287-0.48,0.607-1.216,0.607h-0.96
			c-0.288,0-0.544,0.256-0.544,0.545v7.775H-609.762z"/>
		<path fill="#FFFFFF" d="M-573.445-83.869c-0.192,0-0.32-0.096-0.544-0.545c-0.512,0.641-1.28,0.576-1.728,0.576h-1.568
			c-1.568,0-2.848-1.279-2.848-2.848v-17.15c0-1.568,1.279-2.848,2.848-2.848h1.728c1.536,0.031,2.784,1.311,2.784,2.848v17.502
			l1.152,2.465H-573.445z M-575.077-103.453c0-0.672-0.544-1.215-1.216-1.215h-0.353c-0.64,0-1.184,0.543-1.184,1.215v16.352
			c0,0.672,0.544,1.217,1.216,1.217h0.32c0.352,0,0.768-0.129,1.056-0.514l-0.672-1.344c-0.448-0.959,0.607-0.928,0.607-0.928h0.225
			V-103.453z"/>
		<path fill="#FFFFFF" d="M-552.999-86.654c0,1.537-1.248,2.689-2.752,2.721v0.031h-1.76c-1.568,0-2.848-1.184-2.848-2.752v-19.135
			c0.031-0.352,0.319-0.639,0.672-0.639h1.632v19.357c0,0.672,0.512,1.217,1.184,1.217h0.353c0.672,0,1.216-0.545,1.216-1.217
			v-19.357h2.304V-86.654z"/>
		<path fill="#FFFFFF" d="M-533.481-84.029h-2.527l-2.016-15.424l-2.017,15.424h-2.527l3.392-22.398h1.248
			c0.96,0,1.12,0.607,1.216,1.215L-533.481-84.029z"/>
		<path fill="#FFFFFF" d="M-514.923-86.3c-0.256,0.574-0.641,1.471-0.736,1.662c-0.16,0.289-0.512,0.609-1.248,0.609h-5.503v-22.398
			h1.6c0.384,0.031,0.704,0.32,0.704,0.703V-86.3H-514.923z"/>
		<path fill="#FFFFFF" d="M-503.34-106.427c0.672,0,0.928,0.512,0.928,0.895v21.504h-1.632c-0.544,0-0.64-0.32-0.672-0.48v-21.918
			H-503.34z"/>
		<path fill="#FFFFFF" d="M-485.165-106.427c1.567,0,2.815,1.248,2.848,2.814v16.768c-0.032,1.568-1.28,2.816-2.848,2.816h-4.448
			v-22.398H-485.165z M-484.589-102.972c0-0.832-0.576-1.152-1.216-1.152h-1.504V-86.3h1.504c0.64,0,1.216-0.32,1.216-1.186
			V-102.972z"/>
		<path fill="#FFFFFF" d="M-462.768-84.029h-2.527l-2.016-15.424l-2.017,15.424h-2.527l3.392-22.398h1.248
			c0.96,0,1.12,0.607,1.216,1.215L-462.768-84.029z"/>
		<path fill="#FFFFFF" d="M-448.049-106.427c1.567,0,2.815,1.248,2.848,2.814v16.768c-0.032,1.568-1.28,2.816-2.848,2.816h-4.448
			v-22.398H-448.049z M-447.473-102.972c0-0.832-0.576-1.152-1.216-1.152h-1.504V-86.3h1.504c0.64,0,1.216-0.32,1.216-1.186
			V-102.972z"/>
		<path fill="#FFFFFF" d="M-425.139-86.3c-0.256,0.574-0.641,1.471-0.736,1.662c-0.16,0.289-0.512,0.609-1.248,0.609h-5.119v-21.76
			c0.031-0.352,0.319-0.639,0.704-0.639h5.983l-0.769,1.664c-0.128,0.287-0.479,0.639-1.216,0.639h-1.855
			c-0.32,0-0.544,0.225-0.544,0.545v6.654h3.455c-0.256,0.576-0.64,1.504-0.735,1.697c-0.16,0.287-0.48,0.607-1.216,0.607h-0.96
			c-0.288,0-0.544,0.256-0.544,0.545v7.775H-425.139z"/>
	</g>
</g>
</svg>
